<svg width="352" height="201" viewBox="0 0 352 201" xmlns="http://www.w3.org/2000/svg">
<path d="M235.928 63.384C233.325 63.384 231.405 62.7013 230.168 61.336C228.973 59.928 228.376 58.2 228.376 56.152C228.376 55.256 228.483 54.2533 228.696 53.144C228.909 51.992 229.123 50.8826 229.336 49.816C229.592 48.7493 229.763 48.0666 229.848 47.768C230.189 46.2746 230.509 44.8026 230.808 43.352C231.107 41.9013 231.256 40.728 231.256 39.832C231.256 37.656 230.488 36.568 228.952 36.568C227.885 36.568 226.925 37.08 226.072 38.104C225.261 39.128 224.6 40.4506 224.088 42.072C222.808 48.7706 221.507 55.7466 220.184 63H210.968L219.736 22.168C218.243 22.04 215.427 21.6773 211.288 21.08L202.264 63H193.048L202.2 20.504C198.147 20.6746 194.989 21.72 192.728 23.64C190.467 25.56 189.336 28.8666 189.336 33.56C189.336 35.1386 189.485 36.248 189.784 36.888C190.083 37.4853 190.232 37.8266 190.232 37.912C187.928 37.912 186.2 37.4426 185.048 36.504C183.939 35.5226 183.384 33.9226 183.384 31.704C183.384 28.7173 184.195 25.9653 185.816 23.448C187.437 20.9306 189.933 18.904 193.304 17.368C196.675 15.832 200.877 15.064 205.912 15.064C206.765 15.064 208.579 15.256 211.352 15.64C216.429 16.3653 220.376 16.728 223.192 16.728C226.861 16.728 229.443 16.216 230.936 15.192C230.296 16.3866 229.763 17.5173 229.336 18.584C228.952 19.6506 228.461 21.4 227.864 23.832C227.267 26.2213 226.499 29.7626 225.56 34.456C227.736 31.9813 230.275 30.744 233.176 30.744C235.352 30.744 237.08 31.3413 238.36 32.536C239.64 33.7306 240.28 35.544 240.28 37.976C240.28 39.2133 240.131 40.6 239.832 42.136C239.533 43.6293 239.107 45.464 238.552 47.64C238.211 48.9626 237.891 50.264 237.592 51.544C237.336 52.7813 237.208 53.7626 237.208 54.488C237.208 55.3413 237.4 56.0026 237.784 56.472C238.168 56.9413 238.829 57.176 239.768 57.176C241.048 57.176 242.072 56.728 242.84 55.832C243.608 54.8933 244.376 53.464 245.144 51.544H247.832C246.253 56.2373 244.419 59.3946 242.328 61.016C240.28 62.5946 238.147 63.384 235.928 63.384Z" />
<path d="M254.149 63.384C251.034 63.384 248.602 62.5733 246.853 60.952C245.104 59.288 244.229 56.7066 244.229 53.208C244.229 50.264 244.805 47.0213 245.957 43.48C247.109 39.9386 248.986 36.888 251.589 34.328C254.192 31.7253 257.498 30.424 261.509 30.424C266.202 30.424 268.549 32.472 268.549 36.568C268.549 38.9573 267.866 41.1546 266.501 43.16C265.136 45.1653 263.322 46.7866 261.061 48.024C258.8 49.2186 256.389 49.9013 253.829 50.072C253.744 51.0106 253.701 51.6506 253.701 51.992C253.701 55.5333 255.024 57.304 257.669 57.304C258.864 57.304 260.144 56.984 261.509 56.344C262.874 55.704 264.112 54.8933 265.221 53.912C264.069 60.2266 260.378 63.384 254.149 63.384ZM254.277 47C255.898 46.9573 257.413 46.424 258.821 45.4C260.272 44.376 261.424 43.0746 262.277 41.496C263.173 39.8746 263.621 38.1893 263.621 36.44C263.621 34.6906 263.088 33.816 262.021 33.816C260.528 33.816 259.034 35.1813 257.541 37.912C256.09 40.6 255.002 43.6293 254.277 47Z" />
<path d="M197.848 138.248C195.16 138.333 193.091 139.357 191.64 141.32C190.232 143.283 189.528 146.675 189.528 151.496C189.528 153.075 189.677 154.184 189.976 154.824C190.275 155.421 190.424 155.763 190.424 155.848C188.12 155.848 186.392 155.379 185.24 154.44C184.131 153.459 183.576 151.859 183.576 149.64C183.576 146.611 184.323 143.859 185.816 141.384C187.309 138.867 189.677 136.84 192.92 135.304C196.205 133.768 200.365 133 205.4 133C206.424 133 207.789 133.107 209.496 133.32C212.568 133.619 214.744 133.768 216.024 133.768C218.285 133.768 220.205 133.512 221.784 133C221.656 133.384 221.421 134.237 221.08 135.56C220.739 136.84 220.12 137.949 219.224 138.888C218.371 139.784 217.197 140.381 215.704 140.68C213.187 140.68 210.2 140.275 206.744 139.464L204.056 152.2H213.4L212.376 156.936H203.032L197.848 181H188.632L197.848 138.248Z" />
<path d="M221.527 181.384C218.37 181.384 215.916 180.573 214.167 178.952C212.418 177.288 211.543 174.707 211.543 171.208C211.543 168.264 212.119 165.021 213.271 161.48C214.423 157.939 216.3 154.888 218.903 152.328C221.506 149.725 224.812 148.424 228.823 148.424C233.516 148.424 235.863 150.472 235.863 154.568C235.863 156.957 235.18 159.155 233.815 161.16C232.45 163.165 230.636 164.787 228.375 166.024C226.114 167.219 223.703 167.901 221.143 168.072C221.058 169.352 221.015 170.205 221.015 170.632C221.015 172.723 221.378 174.152 222.103 174.92C222.828 175.645 224.002 176.008 225.623 176.008C227.927 176.008 229.89 175.475 231.511 174.408C233.175 173.341 234.988 171.72 236.951 169.544H239.127C234.391 177.437 228.524 181.384 221.527 181.384ZM221.655 165C223.234 164.915 224.727 164.36 226.135 163.336C227.586 162.312 228.738 161.011 229.591 159.432C230.487 157.853 230.935 156.189 230.935 154.44C230.935 152.691 230.402 151.816 229.335 151.816C227.799 151.816 226.284 153.16 224.791 155.848C223.34 158.536 222.295 161.587 221.655 165Z" />
<path d="M243.274 181.384C241.226 181.384 239.562 180.744 238.282 179.464C237.044 178.184 236.426 176.264 236.426 173.704C236.426 172.637 236.596 171.251 236.938 169.544L243.786 137.48L253.258 136.2L245.898 170.76C245.727 171.4 245.642 172.083 245.642 172.808C245.642 173.661 245.834 174.28 246.218 174.664C246.644 175.005 247.327 175.176 248.266 175.176C249.503 175.176 250.655 174.664 251.722 173.64C252.788 172.573 253.556 171.208 254.026 169.544H256.714C255.135 174.152 253.108 177.288 250.634 178.952C248.159 180.573 245.706 181.384 243.274 181.384Z" />
<path d="M260.336 181.384C258.288 181.384 256.624 180.744 255.344 179.464C254.107 178.184 253.488 176.264 253.488 173.704C253.488 172.637 253.659 171.251 254 169.544L260.848 137.48L270.32 136.2L262.96 170.76C262.789 171.4 262.704 172.083 262.704 172.808C262.704 173.661 262.896 174.28 263.28 174.664C263.707 175.005 264.389 175.176 265.328 175.176C266.565 175.176 267.717 174.664 268.784 173.64C269.851 172.573 270.619 171.208 271.088 169.544H273.776C272.197 174.152 270.171 177.288 267.696 178.952C265.221 180.573 262.768 181.384 260.336 181.384Z" />
<path d="M278.743 181.384C276.311 181.384 274.284 180.552 272.663 178.888C271.041 177.224 270.231 174.621 270.231 171.08C270.231 167.923 270.849 164.616 272.087 161.16C273.367 157.661 275.244 154.717 277.719 152.328C280.236 149.896 283.223 148.68 286.679 148.68C288.428 148.68 289.729 148.979 290.583 149.576C291.436 150.173 291.863 150.963 291.863 151.944V152.392L292.567 149H301.783L297.175 170.76C297.004 171.4 296.919 172.083 296.919 172.808C296.919 173.661 297.111 174.28 297.495 174.664C297.921 175.005 298.604 175.176 299.543 175.176C300.14 175.176 300.609 175.091 300.951 174.92C300.012 177.309 299.116 178.995 298.263 179.976C297.409 180.915 296.172 181.384 294.551 181.384C292.801 181.384 291.372 180.872 290.263 179.848C289.196 178.781 288.535 177.309 288.279 175.432C285.676 179.4 282.497 181.384 278.743 181.384ZM282.903 175.176C283.969 175.176 285.015 174.685 286.039 173.704C287.105 172.68 287.831 171.293 288.215 169.544L291.287 155.08C291.287 154.525 291.073 153.992 290.647 153.48C290.22 152.925 289.559 152.648 288.663 152.648C286.956 152.648 285.42 153.651 284.055 155.656C282.689 157.619 281.623 160.008 280.855 162.824C280.087 165.597 279.703 168.051 279.703 170.184C279.703 172.317 280.001 173.683 280.599 174.28C281.239 174.877 282.007 175.176 282.903 175.176Z" />
<path d="M159.847 95.0246C158.954 93.2387 157.391 92.569 155.438 92.6806C156.833 89.3878 157.838 86.1509 158.507 82.8581C160.795 71.9751 159.01 61.4829 155.717 50.9906C151.977 38.9357 145.783 28.7224 135.402 21.2439C134.732 20.7416 133.839 20.4626 133.225 19.9045C125.97 12.6492 117.989 6.67752 107.943 3.7196C101.19 1.71044 94.3258 0.42681 87.2938 0.036141C81.4895 -0.242909 75.7969 1.15234 70.1043 2.21273C64.8024 3.21731 59.2772 3.1615 54.0869 4.83579C53.2497 5.11484 52.1335 5.28227 51.9103 6.28685C51.7428 7.01238 51.408 7.17981 50.8499 7.40305C47.278 8.96573 43.5388 10.361 40.1902 12.4818C39.5763 12.8724 38.7949 13.7096 38.1252 13.2073C36.3393 11.7562 36.3393 13.8212 35.558 14.3235C34.9441 14.77 35.5022 15.2723 35.7254 15.7745C33.7162 16.4443 31.7071 17.0582 29.7537 17.6721C29.3073 17.7837 28.805 17.8395 28.8608 18.3976C28.8608 19.0115 29.3631 19.1231 29.8654 19.1231C30.7025 19.1789 31.5397 19.2348 32.5442 19.3464C31.0374 20.0719 29.6421 20.7416 28.2469 21.4113C27.8562 21.6346 27.4655 21.8578 27.6888 22.3601C27.9678 22.9182 28.4143 22.8066 28.805 22.5834C29.3631 22.3043 29.9212 22.0253 30.5351 21.7462C27.2423 24.3693 24.2286 27.2714 21.9962 30.899C21.7171 31.4013 20.9358 31.9594 21.7171 32.5175C22.4426 33.0756 22.6659 32.1269 23.224 31.6246C19.5405 38.7682 18.0336 46.0793 18.8708 53.9485C19.0382 55.3996 19.0382 56.8507 18.9266 58.2459C18.4243 65.3338 17.3639 72.3658 17.643 79.4537C17.643 79.7885 17.643 80.0118 17.2523 80.0118C11.5039 80.235 6.20194 82.5232 0.732571 84.0301C0.230282 84.1975 -0.0487677 84.4207 0.00704222 84.9789C0.0628522 86.988 0.118662 88.9414 0.174472 90.9505C0.174472 91.6202 0.509332 92.2341 1.17905 92.4574C2.51849 92.9039 2.85335 93.9084 3.1324 95.1363C4.19279 100.271 5.14156 105.517 8.60177 109.758C8.7692 109.982 8.93663 110.205 9.15987 110.261C11.1132 110.763 13.0666 111.265 15.0757 111.098C15.578 111.042 15.8571 111.321 15.8571 111.768C15.8571 112.716 15.9129 113.721 15.8013 114.67C14.4618 122.427 15.0199 130.017 18.0895 137.273C24.396 152.397 30.2002 167.745 34.3301 183.595C36.1719 190.571 40.1344 194.813 46.5525 197.547C57.6587 202.291 68.0952 199.501 78.3642 195.036C81.8802 193.473 84.5591 190.404 87.7961 188.227C95.0514 183.372 102.028 178.07 109.506 173.549C113.022 171.428 116.315 169.029 119.105 165.903C120.668 164.173 121.952 162.22 123.57 160.546C126.137 157.922 127.979 154.909 129.319 151.448C131.272 146.426 133.449 141.514 136.295 136.882C136.462 136.603 136.686 136.324 137.076 136.38C140.815 136.715 143.885 135.319 146.452 132.808C154.321 125.05 158.396 115.172 161.354 104.791C162.191 101.666 161.465 98.2058 159.847 95.0246ZM156.945 81.7419C157 80.3466 157.112 78.9514 157.168 77.5561C157.224 76.1051 157.224 74.654 157.168 73.2588C156.945 64.8873 153.596 57.2413 151.866 49.2047C150.08 40.9448 144.611 35.0848 140.76 27.8295C154.321 43.5679 159.121 61.5945 156.945 81.7419ZM149.131 94.0759C148.294 94.913 147.848 95.2479 147.178 94.8572C147.736 94.634 148.238 94.4107 149.131 94.0759ZM144.276 94.1317C129.765 91.8435 115.701 87.4903 101.302 84.5882C101.414 84.1975 101.525 83.751 101.581 83.3604C115.589 87.881 129.988 90.6715 144.276 94.1317ZM28.6375 28.276C23.7263 34.3592 23.3356 41.3355 22.6659 48.4792C21.2148 43.7911 24.2844 31.4571 28.6375 28.276ZM21.7171 48.8698C22.1078 50.0418 22.3868 50.879 21.6055 51.8278C21.6055 50.8232 21.6613 50.0418 21.7171 48.8698ZM26.2377 48.9256C26.5726 48.3117 27.019 47.5304 25.7354 47.3071C25.6238 47.3071 25.568 47.0281 25.5122 46.8607C25.1215 45.4654 25.2331 42.061 25.7354 40.4983C26.6842 41.782 26.5726 43.2888 26.9074 44.6841C27.0749 45.298 27.1307 45.9119 27.9678 45.7445C28.6933 45.577 28.4701 44.9631 28.4701 44.405C28.4701 43.5121 27.4097 42.4517 28.9166 41.8378C29.084 42.1726 29.1398 42.7307 29.6979 42.6191C30.3118 42.5075 30.256 42.0052 30.256 41.5587C30.3118 40.2193 30.0328 38.8799 31.0932 37.373C31.0932 38.1543 31.0932 38.6566 31.0932 39.1589C31.0932 39.717 31.149 40.3867 31.8745 40.2751C32.4326 40.1635 33.214 40.1077 33.214 39.1031C33.214 35.8103 34.5534 32.8524 35.9486 29.8945C35.2789 31.792 34.6092 33.6895 33.9953 35.5871C33.772 36.201 33.1581 37.0939 34.1627 37.373C35.0557 37.652 35.4463 36.8707 35.558 36.0335C35.7812 34.4709 36.3393 33.0198 37.009 31.5688C37.1206 31.2897 37.2323 30.9548 37.7346 31.0107C37.3997 32.2385 37.0648 33.4663 36.8416 34.6941C36.73 35.1406 36.0603 35.8103 36.8974 36.0894C37.5113 36.3126 37.9578 35.5871 38.3485 35.1406C39.1856 34.136 39.9111 33.0756 40.8041 31.9036C41.0831 33.0756 41.6413 33.0198 42.3668 32.4617C47.5013 28.7783 53.4729 27.7737 59.5004 26.9365C60.1143 26.8807 61.2305 27.1598 61.0631 26.0994C60.9515 25.0948 59.9469 25.5971 59.333 25.6529C57.7145 25.8203 56.096 26.0436 54.4775 26.2668C54.4217 25.9319 54.3101 25.6529 54.2543 25.2622C57.1006 25.0948 59.8911 24.8158 62.6816 25.3738C63.1839 25.4855 63.6862 25.5413 63.7978 24.8716C63.9094 24.2577 63.4071 24.146 62.9606 24.0902C59.8911 23.4205 56.8215 23.867 53.6962 23.8112C54.8124 23.5321 55.9844 23.4763 56.989 23.0298C60.3376 21.3555 63.0723 23.1973 65.9186 24.4251C66.3092 24.5925 66.8115 24.8716 67.0906 24.3135C67.3696 23.7554 66.8673 23.5321 66.4767 23.3089C60.3376 20.351 54.1985 19.4022 47.9478 23.0856C47.6129 23.3089 47.2222 23.4205 46.8874 23.5879C46.8316 23.5879 46.7758 23.5879 46.5525 23.5321C48.0036 22.6392 49.2872 21.8578 50.5708 21.0207C56.989 16.9465 62.6258 19.737 68.2626 22.8624C68.9323 23.2531 69.4904 23.8112 70.0485 24.2577C70.3834 24.5367 70.774 24.5925 71.0531 24.2018C71.3321 23.867 71.1647 23.5321 70.8857 23.2531C65.0256 18.565 58.5517 16.3885 51.0731 18.7325C49.9011 19.1231 49.9011 19.1231 49.343 18.9557C49.7337 18.565 50.6266 18.4534 50.236 17.6163C49.9011 16.8907 49.1756 17.2256 48.6175 17.3372C45.6596 17.8953 43.3155 19.5696 41.0831 21.523C40.8599 21.6904 40.6367 22.3043 40.246 21.8578C39.9111 21.4672 40.246 21.1323 40.525 20.7974C44.5434 16.5559 49.5663 15.6071 55.2589 15.8862C62.0677 16.2768 68.151 18.1744 73.2855 22.7508C74.3459 23.6996 74.4575 22.5834 74.5691 21.7462C75.0156 22.0253 75.4621 22.2485 75.8527 22.5275L76.0202 22.3043C74.7923 21.2439 73.6761 20.1835 72.3925 19.1789C71.1089 18.1744 69.8253 17.2814 68.4858 16.4443C67.1464 15.5513 65.6953 14.77 64.3559 13.9328C64.6908 13.3189 65.1372 13.4863 65.6953 13.7654C70.6066 16.221 75.0156 19.3464 78.42 23.6996C78.699 24.0344 78.9781 24.3135 79.4246 24.0344C79.871 23.6996 79.7036 23.2531 79.4246 22.9182C77.527 20.8532 75.6295 18.7883 73.6761 16.7233C74.0668 16.1652 74.4017 16.2768 74.904 16.6675C77.6945 18.5092 79.7036 21.1323 81.8802 23.6437C82.1593 23.9786 82.3825 24.4251 82.8848 24.0344C83.3313 23.6437 82.9964 23.2531 82.7174 22.974C81.9918 22.1927 81.5453 21.2997 80.8198 19.6254C82.3267 21.2997 83.3871 22.4159 84.4475 23.5321C84.7265 23.867 85.0056 24.5367 85.5079 24.0902C86.1218 23.5879 85.3962 23.2531 85.173 22.8624C85.0056 22.5834 84.8381 22.3043 84.4475 21.5788C86.0101 22.8066 87.1263 23.6996 88.0193 24.9274C88.1867 25.2064 88.41 25.5971 88.8006 25.3738C89.0239 25.2622 89.1355 24.9274 89.3029 24.7041C91.2005 25.7087 92.0376 28.4434 93.991 28.9457C95.9443 29.448 97.0605 31.792 99.3487 31.2339C99.5161 31.1781 99.6836 31.4571 99.9068 31.5688C103.702 34.3592 107.218 37.5962 111.348 39.8286C112.966 40.6658 113.915 41.8936 115.255 42.8424C115.478 43.0098 115.757 43.233 115.31 43.6237C114.92 43.1214 114.529 42.6191 114.083 42.1726C113.803 41.8936 113.58 41.2797 113.134 41.6703C112.687 42.061 113.19 42.4517 113.469 42.7307C114.975 44.1818 115.701 46.1351 116.929 48.3675C115.087 46.3584 113.859 44.5167 112.855 42.5075C112.687 42.1168 112.464 41.5587 111.906 41.8936C111.348 42.1726 111.683 42.6749 111.85 43.0656C113.357 46.1351 115.478 48.814 117.878 51.2697C118.38 51.7719 118.547 52.33 118.436 53.1672C116.706 51.7719 115.422 50.1535 114.138 48.4792C113.915 48.1443 113.692 47.642 113.19 47.9769C112.631 48.3675 113.134 48.7582 113.357 49.0931C114.752 51.0464 116.315 52.8881 118.157 54.4508C118.938 55.1205 119.496 55.7345 118.938 56.8507C116.706 54.9531 114.696 52.8323 112.855 50.5441C112.631 50.2651 112.408 49.707 111.962 50.0976C111.571 50.4325 112.018 50.7674 112.241 50.9906C114.138 53.4462 116.203 55.7903 118.603 57.7436C119.608 58.5249 119.775 59.1947 118.659 60.0318C116.761 58.3575 115.143 56.4042 113.524 54.395C113.301 54.116 113.022 53.5579 112.52 53.9485C112.018 54.3392 112.464 54.6741 112.743 55.0089C114.473 57.2413 116.371 59.3621 118.38 61.3154C119.05 61.9852 119.664 62.8223 118.715 63.9943C117.152 62.0968 115.645 60.2551 114.083 58.3575C113.803 58.0227 113.58 57.5204 113.078 57.911C112.52 58.3575 113.078 58.6924 113.301 59.0272C115.701 62.4874 119.161 65.2221 120.891 69.1846C121.003 69.4079 121.115 69.6311 121.226 69.8544C121.059 70.0218 120.891 70.1892 120.724 70.3008C117.878 67.2313 115.031 64.1618 112.129 61.148C111.459 60.4783 110.622 59.976 109.897 59.4737C109.729 59.3621 109.395 59.3621 109.283 59.4179C109.004 59.697 109.283 59.8644 109.506 60.0318C114.138 63.3246 117.599 67.7894 121.561 71.6961C122.454 72.589 122.733 73.7611 123.514 75.1005C120.277 72.0868 117.32 69.3521 114.362 66.6174C113.469 65.7802 112.52 65.0547 111.571 64.3292C111.348 64.1617 111.069 63.8269 110.846 64.1618C110.622 64.4966 111.069 64.6082 111.236 64.7757C115.813 68.7382 120.222 72.8681 124.128 77.5003C124.575 78.0584 124.575 78.0584 124.631 78.784C124.463 78.9514 124.24 79.1746 124.073 79.342C121.617 76.6632 119.217 73.9285 116.761 71.2496C116.427 70.9147 116.036 70.245 115.478 70.8031C114.975 71.3612 115.645 71.6403 115.98 71.9751C118.268 74.2075 120.556 76.4399 122.789 78.7281C123.57 79.5095 124.519 80.235 124.073 81.6303C123.905 82.2442 124.407 82.8023 125.077 83.4162C111.906 80.1234 98.958 76.998 85.2288 75.1563C86.6799 74.5424 87.7402 75.1563 88.7448 75.1005C89.5262 75.0447 90.6982 76.1051 90.8656 75.0447C91.033 74.0959 89.4704 74.0959 88.689 74.1517C85.8427 74.2075 83.1638 73.1471 80.5408 72.5891C78.3084 72.1426 76.355 72.9797 74.2901 72.3658C74.5691 71.5845 74.2901 71.2496 73.3413 71.417C71.4437 71.7519 69.5462 72.0868 67.7045 72.4216C67.9835 72.1426 69.0997 72.1984 68.6533 71.3612C68.2068 70.5241 67.4254 71.138 66.9231 71.3612C65.0814 72.1984 62.849 72.1984 61.3422 73.5936C59.5562 73.482 58.2168 74.4308 56.989 75.7702C56.8215 75.2121 57.8819 74.654 57.1006 74.3192C56.2635 73.9285 56.0402 74.8214 55.6495 75.3795C54.7566 76.6074 54.3101 78.0026 53.9752 79.4537C53.8636 79.7885 53.6962 79.956 53.3055 80.0118C47.3339 81.6303 41.3622 80.8489 35.3347 80.4583C35.7254 79.5653 36.2277 80.4024 36.7858 80.1792C36.4509 79.7885 36.2277 79.4537 35.9486 79.1746C35.6696 78.8398 35.3905 78.5049 35.2231 78.0584C36.0603 78.784 36.8416 79.5653 37.6787 80.2908C36.9532 78.5049 35.6138 77.3329 34.2185 75.8818C34.386 78.4491 32.8233 76.998 32.2094 76.8306C30.7583 76.4399 29.4747 75.547 28.0794 75.2121C26.1819 74.7098 24.2844 76.0493 22.2752 75.6028C22.052 75.547 21.4381 76.5516 20.7683 76.8306C21.2706 67.3429 21.2706 57.6878 26.2377 48.9256ZM41.0831 31.6246C41.9761 30.1177 43.3714 29.8386 44.5992 29.3364C43.5388 30.0619 42.4226 30.7874 41.0831 31.6246ZM16.471 108.14C15.1873 108.252 13.6247 108.921 12.5085 107.582C9.10406 103.396 7.42976 98.5407 7.15071 93.1829C7.15071 92.7364 7.42976 91.8993 6.76004 91.8993C5.92289 91.8993 6.31356 92.7922 6.31356 93.2387C6.42518 98.2616 7.98786 102.838 10.4435 107.47C8.93663 105.908 8.09948 104.233 7.54138 102.447C6.31356 98.429 5.25318 94.3549 6.14613 90.1134C6.48099 88.4949 7.70881 87.4903 8.65758 86.2625C8.93663 85.9276 9.21568 85.5369 8.93663 85.0905C8.65758 84.644 8.2111 84.5882 7.76462 84.6998C5.64384 85.2021 3.18821 85.0347 1.79296 87.2112C1.4581 85.816 1.68134 85.0905 3.35564 84.5324C14.5176 80.6257 25.9587 81.128 37.3997 82.3558C45.9386 83.3046 54.0869 82.0209 62.2351 79.5653C67.3138 78.0584 72.5599 76.4399 77.8619 76.3841C84.1126 76.2725 90.3633 77.1655 96.4466 78.8956C96.7256 78.9514 96.8931 79.1188 96.8373 79.4537C96.7256 79.9001 96.4466 79.8443 96.1117 79.8443C92.3167 79.956 88.689 78.6165 84.9498 78.2259C78.4758 77.5561 72.1135 78.3375 65.8069 79.6769C61.5096 80.6257 57.3238 81.7977 53.1939 83.3046C48.1152 85.1463 42.9807 83.6952 37.9578 82.8023C36.6742 82.579 35.4463 82.2442 34.1627 82.1884C27.4097 82.0767 20.6567 81.9093 13.9595 83.3046C13.2898 83.472 12.5643 83.6394 11.9504 83.9185C11.4481 84.1417 10.4435 84.0301 10.6667 84.8672C10.89 85.7602 11.6155 84.8672 12.1736 84.9789C10.2761 86.3741 8.04367 87.4345 7.26233 89.8901C7.15071 90.3366 6.87166 90.7831 7.48557 91.0063C8.09948 91.2296 8.2111 90.7273 8.37853 90.3366C9.43892 87.8252 14.7409 84.5324 17.4197 84.6998C17.7546 84.6998 17.8104 84.8672 17.8104 85.1463C17.5872 92.1783 18.1453 99.2662 17.0291 106.242C16.9733 106.912 17.1965 108.084 16.471 108.14ZM97.3954 82.7465C95.1072 89.7227 95.7769 96.6989 92.9864 103.005C94.1026 99.7685 94.2142 96.3641 94.8281 93.0713C95.3862 89.7785 95.1072 86.2067 97.3954 82.7465ZM61.4538 104.736C61.8444 105.015 62.7374 105.294 62.3467 105.852C62.0119 106.354 61.3422 105.684 60.9515 105.405C57.6587 103.34 56.2635 99.8801 54.4217 96.7547C53.3055 94.8572 52.58 92.8481 52.4126 90.6157C52.3009 89.053 52.6916 87.7693 53.5846 86.8764C52.7474 94.2433 55.5937 100.159 61.4538 104.736ZM55.0356 93.7968C54.7008 92.9039 54.3101 91.9551 54.1985 91.0063C53.9194 87.2671 55.3705 85.7044 58.7749 84.2533C67.7045 80.5141 76.8573 80.5141 86.1776 82.0209C88.2425 82.3558 90.0843 83.1929 91.7586 84.4207C92.1492 84.6998 92.205 85.1463 92.205 85.5369C92.205 86.8206 92.205 88.1042 92.205 89.7785C91.9818 93.4062 91.7028 97.4803 90.1959 101.331C89.4704 103.117 88.41 104.177 86.2892 104.401C81.0989 105.07 75.9085 105.684 70.6624 105.908C62.3467 106.354 56.989 99.2662 55.0356 93.7968ZM45.1573 91.2854C44.2643 93.6294 43.4272 95.7502 42.5342 98.0384C42.4226 95.4153 43.762 91.8435 45.1573 91.2854ZM38.6833 93.0713C36.1719 92.2341 33.9953 90.8947 31.428 90.7831C28.4701 90.6157 25.9028 91.676 23.3914 93.0155C22.8891 93.2945 21.9962 93.6294 22.4426 94.4665C22.9449 95.3595 23.8379 94.7456 24.5634 94.634C24.9541 94.5782 25.3447 94.1875 25.7912 94.0759C26.9632 93.8526 28.3585 92.9597 28.805 95.1363C28.9724 95.8618 29.8095 96.4199 30.3118 97.0338C29.6979 97.3687 28.6375 96.4199 28.5817 97.3687C28.5259 98.3174 29.7537 97.9826 30.4235 98.0942C33.1581 98.429 35.7254 97.8709 38.1252 96.4199C38.181 97.257 37.902 97.5919 37.2323 97.9268C34.8324 99.0429 32.321 99.4894 29.6979 99.2662C29.2514 99.2104 28.7492 99.2104 28.6375 99.8243C28.5259 100.494 29.084 100.606 29.5305 100.606C32.2094 100.829 34.7766 100.494 37.4555 99.322C36.6184 102.112 36.0044 104.847 34.2185 106.801C33.493 107.582 31.5955 107.359 30.2002 107.47C26.74 107.693 23.3356 108.475 19.7079 108.196C21.0474 103.117 20.88 97.9826 20.88 92.8481C20.88 92.6806 21.0474 92.4574 21.159 92.4016C26.3493 90.0017 31.7071 89.1088 37.3439 90.7273C37.6787 90.8389 38.0694 90.8947 38.181 90.4482C38.3485 89.8901 37.8462 89.8343 37.4555 89.7227C32.2652 87.9368 27.2423 88.2158 22.2752 90.5598C21.8287 90.7831 21.3822 90.9505 20.8241 91.1738C20.7125 88.9972 20.5451 86.8764 20.4335 84.644C25.4006 84.5882 30.4235 84.1975 35.3905 84.9789C37.6787 85.3137 38.9624 86.6531 38.6833 89.1646C38.5717 90.3366 38.6833 91.676 38.6833 93.0713ZM31.6513 94.0759C31.6513 94.4107 31.4838 94.9688 31.0932 94.8572C30.4793 94.634 30.1444 94.0201 30.2002 93.1829C30.7025 93.5178 31.5955 93.1271 31.6513 94.0759ZM146.396 129.404C144.611 130.966 142.992 132.641 141.318 134.315C140.09 135.543 135.737 135.208 134.844 133.645C134.23 132.641 133.839 131.469 133.281 130.408C133.17 130.241 132.89 130.017 132.723 130.017C132.277 130.017 132.221 130.408 132.109 130.799C131.049 135.152 130.993 139.784 129.598 144.026C127.812 149.495 125.245 154.518 121.505 159.094C114.641 167.578 105.934 173.605 96.7815 179.186C96.0559 179.632 95.3304 180.86 94.8281 180.749C92.5399 180.246 91.7028 182.144 90.5307 183.204C83.7219 188.897 76.076 192.859 67.7045 195.65C66.5325 196.041 65.4163 196.71 64.2443 197.045C59.0539 198.44 54.3101 196.766 49.3988 195.092C42.0319 192.636 38.2368 187.39 36.7858 180.302C34.7766 170.424 30.7025 161.327 27.019 152.062C24.2844 145.198 21.6613 138.277 19.094 131.357C16.8616 125.274 17.643 119.023 18.5359 112.828C18.7592 111.377 19.5405 111.042 20.7125 110.986C25.568 110.707 30.4235 110.651 35.2231 109.535C35.558 109.479 35.8928 109.591 36.2835 109.647C36.3393 109.647 36.4509 109.647 36.5067 109.647C37.4555 109.87 35.2231 114.391 34.9441 115.116C34.1627 117.125 33.214 119.246 31.4838 120.641C28.9724 122.706 30.6467 127.841 33.9953 128.455C38.181 129.18 41.8645 131.022 45.7712 132.361C45.827 130.408 44.8782 129.348 42.4784 129.18C38.181 128.79 35.1673 124.157 35.3347 120.307C35.5022 116.735 37.2323 113.777 38.6275 110.651C41.5296 104.177 44.4317 97.7035 46.7758 90.9505C48.0036 91.1179 48.6175 92.0667 49.064 93.1271C51.0173 97.4245 52.6916 101.833 55.8728 105.517C58.5517 108.642 62.0677 109.2 65.7511 109.368C73.6761 109.703 81.3779 108.196 89.1355 106.968C93.3212 106.298 95.4978 102.894 96.0559 98.7639C96.614 94.3549 96.9489 89.8343 98.1767 85.5369C98.2883 85.2579 98.3999 85.0905 98.7348 85.2021C106.771 87.7135 115.087 88.9972 123.18 91.2854C123.291 91.3412 123.403 91.397 123.626 91.5086C122.845 91.5644 121.952 91.0621 121.84 92.1225C121.728 93.0713 122.677 92.8481 123.235 93.1271C123.738 93.4062 124.128 93.8526 124.575 94.1875C124.686 94.2433 124.798 94.2991 124.91 94.3549C128.202 95.6944 131.272 97.6477 134.788 98.4848C135.346 98.5965 135.96 98.7639 136.127 97.9826C136.295 97.257 135.625 97.1454 135.123 97.0338C132.723 96.4199 130.491 95.3595 128.37 94.1875C130.658 94.913 133.002 95.6944 135.29 96.4199C135.514 96.4757 135.737 96.5315 135.96 96.5315C136.686 96.4199 137.913 97.0338 137.969 95.7502C138.025 94.5223 136.853 95.0246 136.127 94.9688C134.509 94.7456 133.002 94.1317 131.16 93.4062C136.351 94.4107 141.206 95.3595 146.341 96.3083C141.485 100.94 138.304 106.242 138.304 113.051C139.309 112.605 139.364 111.6 139.588 110.763C140.481 107.303 141.653 103.954 143.885 101.052C145.671 98.7639 147.792 96.8106 150.247 95.2479C153.596 93.1271 158.228 95.4153 158.451 99.3778C159.344 111.489 155.493 121.479 146.396 129.404ZM35.3905 126.669C33.9953 125.385 32.2094 126.278 31.8187 124.548C31.5397 123.153 32.0419 122.037 33.2698 120.92C33.1581 123.041 34.2185 124.436 35.3905 126.669Z" />
<path d="M125.077 94.4665C127.756 96.4756 130.826 97.8709 133.839 99.3219C134.286 99.5452 134.9 99.6568 134.621 100.327C134.342 100.996 133.783 100.717 133.337 100.55C130.1 99.2661 127.086 97.5918 124.184 95.6943C123.849 95.471 123.514 95.192 123.682 94.7455C123.849 94.2432 124.24 94.1874 124.686 94.299C124.798 94.3548 124.91 94.4107 125.077 94.4665Z" />
<path d="M44.097 143.3C55.538 144.416 66.9232 142.463 78.3085 142.016C79.5921 141.961 80.8757 141.068 82.1593 140.454C82.7174 140.231 83.2197 140.007 83.6104 140.565C84.0011 141.123 83.6662 141.626 83.2755 142.016C77.5271 148.211 71.0532 153.123 62.8491 155.634C57.4913 157.253 52.1894 157.42 46.8317 156.36C41.753 155.299 38.4044 151.951 35.558 147.932C34.9999 147.095 34.5535 145.923 33.1024 146.146C32.7676 146.202 32.5443 145.756 32.5443 145.365C32.6001 144.863 32.8792 144.639 33.3257 144.584C36.8975 144.026 40.4135 143.021 44.097 143.3ZM74.5134 143.97C72.6716 144.026 71.0532 144.081 69.4347 144.193C64.1327 144.584 58.8308 145.086 53.473 145.309C49.6222 145.421 45.7713 145.086 41.9204 144.919C41.6971 144.919 41.3065 144.919 41.1949 145.03C40.4693 145.811 41.5855 149.607 42.6459 149.83C49.3989 151.448 56.2077 151.672 62.9607 150.5C67.3697 149.83 71.8903 148.602 74.5134 143.97ZM71.7229 149.495C62.5142 154.295 52.9149 152.955 43.3156 151.951C43.8737 152.955 44.3202 154.016 45.7155 154.406C54.8683 156.918 63.184 154.797 71.109 150.165C71.388 149.997 71.4996 149.718 71.7229 149.495Z" />
<path d="M147.345 106.968C146.452 107.303 146.117 108.865 145.225 108.196C144.387 107.582 145.057 106.354 145.336 105.517C146.676 101.889 149.466 99.6567 152.982 98.4846C155.103 97.7591 157.391 99.6567 157.447 101.945C157.447 102.503 157.335 103.005 156.833 103.284C156.163 103.675 155.549 103.452 154.991 103.117C154.377 102.726 153.484 101.889 153.094 102.056C151.81 102.67 150.694 103.619 149.578 104.456C149.243 104.735 149.634 104.959 149.801 105.182C151.308 107.079 150.973 109.256 150.582 111.433C150.471 112.102 149.968 112.381 149.299 112.381C148.629 112.381 148.629 111.767 148.517 111.377C148.294 109.814 147.401 108.53 147.345 106.968Z" />
<path d="M89.303 147.207C89.1355 150.946 87.9635 154.797 86.8473 158.648C86.7357 159.094 86.4566 159.374 85.9544 159.206C85.3963 159.039 85.4521 158.592 85.5637 158.09C86.5683 153.793 88.0751 149.551 87.5728 144.975C86.9031 139.059 83.2755 134.817 79.5362 130.631C78.5874 129.571 77.6387 128.455 76.7457 127.339C76.4667 127.004 76.355 126.613 76.6899 126.278C76.969 125.943 77.4154 125.943 77.6387 126.278C81.5454 130.966 86.4008 134.929 88.3542 141.012C88.9681 142.965 89.2471 144.863 89.303 147.207Z" />
<path d="M52.6357 165.959C50.1801 165.345 48.0035 164.564 45.9943 163.392C45.0455 162.834 44.1526 162.22 43.2038 161.662C42.8131 161.439 42.5341 161.16 42.8131 160.713C43.0364 160.322 43.3712 160.378 43.7619 160.546C48.8406 162.722 53.8635 162.499 59.1096 160.769C60.3375 160.378 61.6211 159.988 62.9047 159.485C63.2396 159.374 63.5744 159.485 63.6861 159.82C63.7419 160.043 63.7419 160.49 63.5744 160.601C60.17 163.113 56.4308 164.62 52.6357 165.959Z" />
<path d="M156.163 106.912C155.159 111.21 153.596 115.73 151.252 119.972C150.303 121.758 149.466 123.599 147.792 124.827C147.122 125.274 146.452 125.553 145.838 124.939C145.169 124.269 145.448 123.544 146.062 123.097C151.754 119.023 153.317 112.716 155.047 106.466C155.159 106.075 155.326 105.796 155.717 105.852C156.052 105.908 156.219 106.131 156.163 106.912Z" />
<path d="M30.7583 130.296C30.535 131.022 30.4234 131.915 30.0327 132.585C26.74 138.668 28.6375 144.472 30.7583 150.276C31.0373 151.058 32.321 152.285 31.2606 152.732C30.256 153.178 30.0886 151.448 29.8095 150.667C28.1352 146.37 26.2377 142.128 26.7958 137.328C27.1306 134.705 28.5817 132.361 29.3072 129.85C29.4188 129.459 29.7537 129.348 30.1444 129.403C30.535 129.571 30.7025 129.85 30.7583 130.296Z" />
<path d="M147.792 115.674C147.792 117.739 144.387 121.813 142.713 122.092C141.987 122.204 141.374 121.981 140.927 121.367C140.481 120.809 140.648 120.195 140.927 119.581C141.485 118.521 142.49 118.074 143.494 117.628C145.95 116.567 146.508 115.005 145.336 112.549C145.057 111.991 145.113 111.544 145.671 111.321C146.229 111.098 146.285 111.656 146.396 111.991C147.01 113.274 147.903 114.502 147.792 115.674Z" />
<path d="M125.747 99.8244C127.477 101.443 129.375 102.727 131.551 103.508C131.998 103.675 132.5 103.899 132.277 104.512C132.053 105.071 131.551 104.959 131.16 104.791C128.537 103.954 126.472 102.28 124.352 100.606C124.017 100.327 124.128 100.048 124.24 99.657C124.519 98.8198 123.961 97.1455 125.97 98.2059C128.091 99.3221 130.323 100.271 132.444 101.331C132.946 101.555 133.616 101.834 133.225 102.559C132.891 103.229 132.277 102.894 131.774 102.671C129.821 101.722 127.812 100.773 125.747 99.8244Z" />
<path d="M64.7466 120.753C64.7466 123.543 62.2351 126.78 59.8353 127.339C59.4446 127.45 59.1656 127.283 58.9982 126.948C58.8307 126.613 58.8865 126.278 59.2214 126.055C59.6121 125.72 60.0586 125.441 60.505 125.162C63.9653 122.874 64.4117 120.53 62.1793 116.958C61.8445 116.456 60.9515 115.786 61.8445 115.284C62.6816 114.726 62.8491 115.842 63.2397 116.344C64.3559 117.683 64.8024 119.302 64.7466 120.753Z" />
<path d="M55.0357 127.004C54.9799 127.673 54.645 128.008 54.0869 127.897C51.7987 127.506 49.4547 126.557 47.2781 128.287C47.0549 128.511 46.6642 128.232 46.4968 127.897C46.3293 127.562 46.3851 127.227 46.6642 127.059C48.6734 125.999 50.6825 124.827 53.0823 125.218C54.0311 125.441 54.8124 125.943 55.0357 127.004Z" />
<path d="M139.811 127.171C138.583 127.227 138.137 127.06 138.081 126.446C138.025 125.832 138.416 125.497 138.974 125.441C140.481 125.218 141.988 124.995 143.439 124.771C143.885 124.716 144.611 124.381 144.722 124.995C144.834 125.497 144.387 126.222 143.773 126.39C142.322 126.725 140.76 127.004 139.811 127.171Z" />
<path d="M129.374 107.024C127.254 106.522 125.356 105.35 123.57 104.066C123.291 103.843 123.291 103.452 123.514 103.117C123.793 102.782 124.128 102.671 124.463 102.894C126.193 103.954 127.923 104.959 129.821 105.629C130.156 105.74 130.323 106.075 130.212 106.466C130.156 106.912 129.877 107.024 129.374 107.024Z" />
<path d="M50.236 105.405C50.4592 104.457 50.7941 103.061 51.1289 101.666C51.2405 101.275 51.4638 100.996 51.9103 101.108C52.4125 101.275 52.4125 101.666 52.2451 102.057C51.7986 103.619 51.3522 105.182 51.408 106.801C51.408 107.191 51.5754 107.805 50.9057 107.861C50.236 107.917 50.4034 107.247 50.3476 106.856C50.2918 106.522 50.2918 106.187 50.236 105.405Z" />
<path d="M123.849 104.624C125.133 105.461 126.416 106.242 127.588 107.079C127.7 107.135 127.588 107.638 127.477 107.749C127.309 107.917 126.919 107.972 126.695 107.861C125.579 107.247 124.519 106.633 123.459 105.963C123.179 105.796 123.012 105.461 123.235 105.126C123.347 104.959 123.626 104.791 123.849 104.624Z" />
<path d="M46.7199 120.362C46.385 121.255 45.9944 122.427 45.5479 123.599C45.4921 123.767 45.1014 123.878 44.934 123.878C44.5991 123.822 44.4875 123.543 44.5991 123.208C44.934 122.036 45.2688 120.92 45.6037 119.748C45.7153 119.469 45.9385 119.302 46.2734 119.358C46.6083 119.469 46.7199 119.748 46.7199 120.362Z" />
<path d="M123.682 82.3558C123.57 82.4674 123.514 82.6907 123.403 82.6907C123.18 82.6907 122.956 82.6349 122.789 82.4674C121.784 81.4629 120.78 80.4025 119.719 79.3421C119.552 79.1747 119.329 78.9514 119.552 78.6724C119.608 78.6165 119.943 78.5607 120.054 78.6724C121.226 79.7886 122.342 80.9048 123.514 82.0768C123.626 82.0768 123.626 82.1884 123.682 82.3558Z" />
<path d="M119.217 76.105C120.78 77.8351 122.342 79.5094 123.961 81.2395C123.905 81.2953 123.794 81.3511 123.738 81.4627C122.175 79.7326 120.612 78.0583 118.994 76.3282C119.05 76.2166 119.106 76.1608 119.217 76.105Z" />
<path d="M72.0018 93.7968C71.3321 91.6202 70.1601 91.3412 67.2021 92.5132C66.4766 92.7922 65.8069 93.1829 65.0256 93.5178C65.3046 93.7968 65.8627 93.9084 65.6395 94.4665C65.472 94.913 65.0256 94.913 64.6907 95.0246C64.6349 95.0246 64.5791 95.0804 64.5233 95.0246C63.5745 94.9688 62.2351 95.3037 61.7886 94.3549C61.3979 93.462 62.7932 93.3503 63.2954 92.7922C63.7419 92.29 64.2442 91.8993 64.7465 91.4528C64.4675 91.2296 64.021 91.1179 64.0768 90.6715C64.1326 90.225 64.4675 90.1134 64.8581 89.9459C71.6111 87.5461 78.3083 87.4345 85.0055 90.0576C86.0659 90.4482 87.1821 90.8947 88.2425 91.2854C88.9122 91.5644 89.4145 92.1225 89.1913 92.7922C88.968 93.6294 88.1867 93.3503 87.5728 93.1271C86.8472 92.9039 86.1775 92.5132 85.452 92.29C85.0055 92.1225 84.3916 91.3412 84.0009 92.4016C83.7777 93.0155 82.7173 93.8526 84.3916 93.9643C84.5032 93.9643 84.6148 94.2433 84.6148 94.4107C84.6148 94.8014 84.28 94.8572 84.0009 94.913C80.764 95.1921 77.527 95.5269 74.29 95.1921C72.4483 95.0246 70.6065 95.0804 68.709 95.0246C68.3183 95.0246 67.8161 95.1363 67.7602 94.5782C67.7044 93.9642 68.2625 94.0759 68.5974 94.0201C69.7694 93.9642 70.8856 93.9084 72.0018 93.7968ZM75.6853 92.1225C76.0759 92.1225 76.355 92.1225 76.355 91.676C76.355 91.2296 76.0759 91.0063 75.6853 90.9505C75.2388 90.8947 75.0713 91.2854 75.0155 91.6202C74.9597 92.1225 75.4062 92.0109 75.6853 92.1225Z" />
<path d="M63.0723 88.7739C63.742 87.6577 64.6908 87.267 65.5837 86.8763C71.0531 84.3649 76.5225 85.4253 81.9918 86.9879C83.2755 87.3786 84.5033 87.8251 85.7869 88.2716C86.066 88.3832 86.5124 88.439 86.4008 88.8297C86.2334 89.332 85.7869 89.0529 85.5079 88.9413C80.6524 87.0437 75.5737 86.2624 70.3276 86.5973C67.8161 86.8205 65.6395 87.8251 63.0723 88.7739Z" />
<path d="M78.0293 100.494C74.9598 100.661 72.2251 99.6011 69.3788 98.6523C68.9881 98.5407 68.709 98.2616 68.8765 97.8152C69.0439 97.3687 69.3788 97.2571 69.8252 97.4245C73.8436 99.0988 77.9735 99.5453 82.2709 98.5965C82.6615 98.4849 82.9964 98.6523 83.108 99.0988C83.2196 99.6011 82.8848 99.8243 82.4383 99.8801C80.9314 100.103 79.4804 100.327 78.0293 100.494Z" />
<path d="M197.848 77.248C195.16 77.3333 193.091 78.3573 191.64 80.32C190.232 82.2827 189.528 85.6747 189.528 90.496C189.528 92.0747 189.677 93.184 189.976 93.824C190.275 94.4213 190.424 94.7627 190.424 94.848C188.12 94.848 186.392 94.3787 185.24 93.44C184.131 92.4587 183.576 90.8587 183.576 88.64C183.576 85.6107 184.323 82.8587 185.816 80.384C187.309 77.8667 189.677 75.84 192.92 74.304C196.205 72.768 200.365 72 205.4 72C206.424 72 207.789 72.1067 209.496 72.32C212.568 72.6187 214.744 72.768 216.024 72.768C218.285 72.768 220.205 72.512 221.784 72C221.656 72.384 221.421 73.2373 221.08 74.56C220.739 75.84 220.12 76.9493 219.224 77.888C218.371 78.784 217.197 79.3813 215.704 79.68C213.187 79.68 210.2 79.2747 206.744 78.464L204.056 91.2H213.4L212.376 95.936H203.032L197.848 120H188.632L197.848 77.248Z" />
<path d="M216.727 88H225.943L225.111 91.968C226.562 90.688 227.863 89.7067 229.015 89.024C230.21 88.3413 231.49 88 232.855 88C234.22 88 235.287 88.4693 236.055 89.408C236.866 90.3467 237.271 91.4773 237.271 92.8C237.271 94.0373 236.866 95.1253 236.055 96.064C235.244 97.0027 234.114 97.472 232.663 97.472C231.724 97.472 231.084 97.2587 230.743 96.832C230.444 96.3627 230.21 95.7013 230.039 94.848C229.911 94.2933 229.783 93.888 229.655 93.632C229.527 93.376 229.292 93.248 228.951 93.248C228.055 93.248 227.287 93.44 226.647 93.824C226.05 94.1653 225.26 94.784 224.279 95.68L219.159 120H209.943L216.727 88Z" />
<path d="M242.774 120.384C240.726 120.384 239.062 119.744 237.782 118.464C236.544 117.184 235.926 115.264 235.926 112.704C235.926 111.637 236.096 110.251 236.438 108.544L240.79 88H250.006L245.398 109.76C245.27 110.4 245.206 110.997 245.206 111.552C245.206 113.301 245.846 114.176 247.126 114.176C248.32 114.176 249.344 113.685 250.198 112.704C251.051 111.68 251.734 110.293 252.246 108.544L256.598 88H265.814L261.206 109.76C261.035 110.4 260.95 111.083 260.95 111.808C260.95 112.661 261.142 113.28 261.526 113.664C261.952 114.005 262.635 114.176 263.574 114.176C264.768 114.176 265.792 113.664 266.646 112.64C267.542 111.616 268.246 110.251 268.758 108.544H271.446C269.867 113.152 267.904 116.288 265.558 117.952C263.254 119.573 260.928 120.384 258.582 120.384C256.747 120.384 255.275 119.872 254.166 118.848C253.099 117.824 252.459 116.309 252.246 114.304C250.795 116.651 249.259 118.251 247.638 119.104C246.059 119.957 244.438 120.384 242.774 120.384Z" />
<path d="M280.078 136C278.03 136 276.323 135.467 274.958 134.4C273.593 133.333 272.91 131.797 272.91 129.792C272.91 127.36 273.891 125.397 275.854 123.904C277.817 122.453 280.313 121.237 283.342 120.256L284.11 116.864C281.934 119.211 279.374 120.384 276.43 120.384C273.998 120.384 271.971 119.552 270.35 117.888C268.729 116.224 267.918 113.621 267.918 110.08C267.918 106.923 268.537 103.616 269.774 100.16C271.054 96.6613 272.931 93.7173 275.406 91.328C277.923 88.896 280.91 87.68 284.366 87.68C286.115 87.68 287.417 87.9787 288.27 88.576C289.123 89.1733 289.55 89.9627 289.55 90.944V91.328L290.254 88H299.47L293.134 117.696C295.182 117.013 296.825 115.989 298.062 114.624C299.299 113.259 300.345 111.232 301.198 108.544H303.886C302.734 112.341 301.177 115.136 299.214 116.928C297.251 118.677 295.033 119.872 292.558 120.512L291.598 125.12C290.745 129.259 289.273 132.096 287.182 133.632C285.091 135.211 282.723 136 280.078 136ZM280.59 114.176C281.571 114.176 282.574 113.728 283.598 112.832C284.622 111.936 285.326 110.72 285.71 109.184L288.974 94.016C288.974 93.504 288.761 92.992 288.334 92.48C287.907 91.9253 287.246 91.648 286.35 91.648C284.643 91.648 283.107 92.6507 281.742 94.656C280.377 96.6187 279.31 99.008 278.542 101.824C277.774 104.597 277.39 107.051 277.39 109.184C277.39 111.317 277.689 112.683 278.286 113.28C278.926 113.877 279.694 114.176 280.59 114.176ZM278.606 131.008C279.331 131.008 280.035 130.517 280.718 129.536C281.401 128.555 281.934 127.147 282.318 125.312L282.702 123.456C278.521 124.992 276.43 126.805 276.43 128.896C276.43 129.451 276.622 129.941 277.006 130.368C277.39 130.795 277.923 131.008 278.606 131.008Z" />
<path d="M308.868 120.384C306.436 120.384 304.409 119.552 302.788 117.888C301.166 116.224 300.356 113.621 300.356 110.08C300.356 106.923 300.974 103.616 302.212 100.16C303.492 96.6613 305.369 93.7173 307.844 91.328C310.361 88.896 313.348 87.68 316.804 87.68C318.553 87.68 319.854 87.9787 320.708 88.576C321.561 89.1733 321.988 89.9627 321.988 90.944V91.392L322.692 88H331.908L327.3 109.76C327.129 110.4 327.044 111.083 327.044 111.808C327.044 113.643 327.918 114.56 329.668 114.56C330.862 114.56 331.886 114.005 332.74 112.896C333.636 111.787 334.34 110.336 334.852 108.544H337.54C335.961 113.152 333.998 116.288 331.652 117.952C329.348 119.573 327.022 120.384 324.676 120.384C322.884 120.384 321.433 119.893 320.324 118.912C319.257 117.888 318.617 116.416 318.404 114.496C317.166 116.245 315.78 117.675 314.244 118.784C312.75 119.851 310.958 120.384 308.868 120.384ZM313.028 114.176C314.094 114.176 315.14 113.685 316.164 112.704C317.23 111.68 317.956 110.293 318.34 108.544L321.412 94.08C321.412 93.5253 321.198 92.992 320.772 92.48C320.345 91.9253 319.684 91.648 318.788 91.648C317.081 91.648 315.545 92.6507 314.18 94.656C312.814 96.6187 311.748 99.008 310.98 101.824C310.212 104.597 309.828 107.051 309.828 109.184C309.828 111.317 310.126 112.683 310.724 113.28C311.364 113.877 312.132 114.176 313.028 114.176Z" />
<path d="M341.083 120.384C339.035 120.384 337.371 119.744 336.091 118.464C334.854 117.141 334.235 115.179 334.235 112.576C334.235 111.509 334.406 110.123 334.747 108.416L341.595 76.352L351.067 75.072L343.707 109.632C343.536 110.272 343.451 110.891 343.451 111.488C343.451 113.195 344.326 114.048 346.075 114.048C346.843 114.048 347.526 113.92 348.123 113.664C347.952 115.797 347.184 117.461 345.819 118.656C344.496 119.808 342.918 120.384 341.083 120.384Z" />
</svg>
