<svg width="334" height="414" viewBox="0 0 334 414" xmlns="http://www.w3.org/2000/svg">
<path d="M330.164 196.274C328.319 192.585 325.092 191.201 321.057 191.432C323.939 184.631 326.014 177.945 327.397 171.144C332.123 148.665 328.435 126.993 321.633 105.321C313.91 80.4217 301.114 59.3263 279.673 43.8794C278.29 42.8419 276.445 42.2655 275.177 41.1127C260.191 26.1269 243.707 13.7924 222.957 7.68283C209.009 3.53292 194.83 0.881578 180.305 0.0746493C168.317 -0.501728 156.559 2.38016 144.801 4.57039C133.849 6.64535 122.437 6.53008 111.717 9.98835C109.987 10.5647 107.682 10.9105 107.221 12.9855C106.875 14.4841 106.183 14.8299 105.031 15.291C97.6529 18.5187 89.9295 21.4006 83.0129 25.7811C81.7449 26.588 80.131 28.3172 78.7477 27.2797C75.0589 24.2825 75.0589 28.5477 73.4451 29.5852C72.177 30.5074 73.3298 31.5449 73.7909 32.5823C69.641 33.9657 65.491 35.2337 61.4564 36.5017C60.5342 36.7323 59.4967 36.8475 59.612 38.0003C59.612 39.2683 60.6495 39.4989 61.687 39.4989C63.4161 39.6142 65.1452 39.7294 67.2202 39.96C64.1077 41.4586 61.2258 42.8419 58.344 44.2252C57.537 44.6863 56.7301 45.1474 57.1912 46.1849C57.7676 47.3376 58.6898 47.1071 59.4967 46.646C60.6495 46.0696 61.8022 45.4932 63.0703 44.9168C56.269 50.3348 50.0441 56.3291 45.4331 63.822C44.8567 64.8595 43.2429 66.0123 44.8567 67.165C46.3553 68.3178 46.8164 66.3581 47.9692 65.3206C40.361 80.0759 37.2485 95.177 38.9777 111.431C39.3235 114.428 39.3235 117.425 39.093 120.307C38.0555 134.947 35.8652 149.472 36.4416 164.112C36.4416 164.803 36.4416 165.264 35.6347 165.264C23.7613 165.726 12.8101 170.452 1.51313 173.564C0.475648 173.91 -0.10073 174.371 0.0145457 175.524C0.129821 179.674 0.245097 183.709 0.360372 187.858C0.360372 189.242 1.05203 190.51 2.43533 190.971C5.20194 191.893 5.8936 193.968 6.46997 196.504C8.66021 207.109 10.6199 217.945 17.767 226.706C18.1128 227.167 18.4586 227.629 18.9197 227.744C22.9544 228.781 26.989 229.819 31.1389 229.473C32.1764 229.358 32.7528 229.934 32.7528 230.856C32.7528 232.816 32.8681 234.891 32.6375 236.851C29.8709 252.874 31.0237 268.551 37.3638 283.537C50.39 314.777 62.3786 346.478 70.909 379.216C74.7131 393.625 82.8977 402.386 96.1543 408.035C119.094 417.833 140.651 412.069 161.861 402.847C169.124 399.62 174.657 393.279 181.343 388.784C196.329 378.755 210.738 367.804 226.185 358.466C233.447 354.086 240.249 349.129 246.013 342.674C249.24 339.1 251.892 335.065 255.235 331.607C260.537 326.189 264.341 319.964 267.108 312.817C271.143 302.442 275.638 292.298 281.517 282.73C281.863 282.154 282.324 281.577 283.131 281.693C290.855 282.384 297.195 279.503 302.498 274.315C318.751 258.292 327.166 237.888 333.276 216.447C335.005 209.991 333.507 202.844 330.164 196.274ZM324.169 168.838C324.285 165.956 324.515 163.074 324.63 160.192C324.746 157.195 324.746 154.198 324.63 151.316C324.169 134.025 317.253 118.232 313.679 101.632C309.99 84.5716 298.693 72.4677 290.739 57.4819C318.751 89.9896 328.665 127.224 324.169 168.838ZM308.031 194.314C306.302 196.043 305.379 196.735 303.996 195.928C305.149 195.467 306.186 195.006 308.031 194.314ZM298.002 194.429C268.03 189.703 238.981 180.711 209.24 174.717C209.47 173.91 209.701 172.988 209.816 172.181C238.75 181.518 268.491 187.282 298.002 194.429ZM59.1509 58.4041C49.0066 70.9691 48.1997 85.3785 46.8164 100.134C43.8192 90.4507 50.1594 64.9748 59.1509 58.4041ZM44.8567 100.941C45.6637 103.362 46.24 105.091 44.6262 107.05C44.6262 104.975 44.7415 103.362 44.8567 100.941ZM54.194 101.056C54.8857 99.788 55.8079 98.1741 53.1566 97.713C52.926 97.713 52.8107 97.1366 52.6955 96.7908C51.8885 93.9089 52.1191 86.8771 53.1566 83.6494C55.1162 86.3007 54.8857 89.4132 55.5774 92.2951C55.9232 93.5631 56.0385 94.8311 57.7676 94.4853C59.2662 94.1395 58.8051 92.8714 58.8051 91.7187C58.8051 89.8743 56.6148 87.6841 59.7273 86.416C60.0731 87.1077 60.1884 88.2604 61.3411 88.0299C62.6092 87.7993 62.4939 86.7618 62.4939 85.8396C62.6092 83.073 62.0328 80.3064 64.223 77.194C64.223 78.8078 64.223 79.8453 64.223 80.8828C64.223 82.0355 64.3383 83.4189 65.8369 83.1883C66.9896 82.9578 68.6035 82.8425 68.6035 80.7675C68.6035 73.9663 71.3701 67.8567 74.252 61.7471C72.8687 65.6664 71.4854 69.5858 70.2173 73.5052C69.7562 74.7732 68.4882 76.6176 70.5632 77.194C72.4076 77.7704 73.2145 76.1565 73.4451 74.4274C73.9062 71.1997 75.0589 68.2025 76.4422 65.2053C76.6728 64.6289 76.9033 63.9373 77.9408 64.0526C77.2491 66.5886 76.5575 69.1247 76.0964 71.6608C75.8658 72.583 74.4825 73.9663 76.2117 74.5426C77.4797 75.0037 78.4019 73.5052 79.2088 72.583C80.938 70.508 82.4365 68.3178 84.281 65.897C84.8573 68.3178 86.0101 68.2025 87.5087 67.0497C98.114 59.4415 110.448 57.3666 122.898 55.6375C124.166 55.5222 126.472 56.0986 126.126 53.9083C125.895 51.8334 123.82 52.8708 122.552 52.9861C119.209 53.3319 115.866 53.793 112.523 54.2541C112.408 53.5625 112.178 52.9861 112.062 52.1792C117.941 51.8334 123.705 51.257 129.469 52.4097C130.506 52.6403 131.544 52.7556 131.774 51.3723C132.005 50.1042 130.968 49.8737 130.045 49.7584C123.705 48.3751 117.365 49.2973 110.91 49.182C113.215 48.6056 115.636 48.4904 117.711 47.5682C124.627 44.1099 130.276 47.914 136.155 50.4501C136.962 50.7959 137.999 51.3723 138.576 50.2195C139.152 49.0667 138.115 48.6056 137.308 48.1445C124.627 42.0349 111.947 40.0753 99.0362 47.6834C98.3446 48.1445 97.5376 48.3751 96.846 48.7209C96.7307 48.7209 96.6154 48.7209 96.1543 48.6056C99.1515 46.7612 101.803 45.1474 104.454 43.4182C117.711 35.0031 129.354 40.7669 140.997 47.2223C142.38 48.0293 143.533 49.182 144.685 50.1042C145.377 50.6806 146.184 50.7959 146.76 49.989C147.337 49.2973 146.991 48.6056 146.414 48.0293C134.311 38.3461 120.939 33.8504 105.492 38.692C103.071 39.4989 103.071 39.4989 101.918 39.1531C102.725 38.3461 104.569 38.1156 103.763 36.3864C103.071 34.8879 101.572 35.5795 100.42 35.8101C94.3099 36.9628 89.4684 40.4211 84.8573 44.4557C84.3962 44.8016 83.9351 46.0696 83.1282 45.1474C82.4365 44.3405 83.1282 43.6488 83.7046 42.9571C92.0044 34.1962 102.379 32.2365 114.137 32.8129C128.201 33.6198 140.766 37.5392 151.371 46.9918C153.562 48.9515 153.792 46.646 154.023 44.9168C154.945 45.4932 155.867 45.9543 156.674 46.5307L157.02 46.0696C154.484 43.8794 152.178 41.6891 149.527 39.6142C146.876 37.5392 144.224 35.6948 141.458 33.9657C138.691 32.1212 135.694 30.5074 132.927 28.7783C133.619 27.5102 134.541 27.8561 135.694 28.4324C145.838 33.5046 154.945 39.96 161.977 48.9515C162.553 49.6431 163.129 50.2195 164.052 49.6431C164.974 48.9515 164.628 48.0293 164.052 47.3376C160.132 43.0724 156.213 38.8072 152.178 34.542C152.985 33.3893 153.677 33.6198 154.714 34.4268C160.478 38.2308 164.628 43.6488 169.124 48.8362C169.7 49.5279 170.161 50.4501 171.199 49.6431C172.121 48.8362 171.429 48.0293 170.853 47.4529C169.354 45.839 168.432 43.9946 166.934 40.5364C170.046 43.9946 172.236 46.3001 174.426 48.6056C175.003 49.2973 175.579 50.6806 176.617 49.7584C177.885 48.7209 176.386 48.0293 175.925 47.2223C175.579 46.646 175.233 46.0696 174.426 44.571C177.654 47.1071 179.96 48.9515 181.804 51.4875C182.15 52.0639 182.611 52.8708 183.418 52.4097C183.879 52.1792 184.11 51.4875 184.455 51.0264C188.375 53.1014 190.104 58.7499 194.139 59.7874C198.173 60.8249 200.479 65.6664 205.205 64.5137C205.551 64.3984 205.897 64.9748 206.358 65.2053C214.196 70.9691 221.459 77.6551 229.989 82.2661C233.332 83.9952 235.292 86.5313 238.059 88.491C238.52 88.8368 239.096 89.2979 238.174 90.1048C237.367 89.0674 236.56 88.0299 235.638 87.1077C235.061 86.5313 234.6 85.2633 233.678 86.0702C232.756 86.8771 233.793 87.6841 234.37 88.2604C237.482 91.2576 238.981 95.2922 241.517 99.9033C237.713 95.7533 235.177 91.9492 233.102 87.7993C232.756 86.9924 232.295 85.8396 231.142 86.5313C229.989 87.1077 230.681 88.1452 231.027 88.9521C234.139 95.2922 238.52 100.825 243.476 105.898C244.514 106.935 244.86 108.088 244.629 109.817C241.056 106.935 238.404 103.592 235.753 100.134C235.292 99.4422 234.831 98.4047 233.793 99.0963C232.641 99.9033 233.678 100.71 234.139 101.402C237.021 105.436 240.249 109.241 244.053 112.468C245.667 113.852 246.819 115.12 245.667 117.425C241.056 113.506 236.906 109.125 233.102 104.399C232.641 103.823 232.179 102.67 231.257 103.477C230.45 104.168 231.373 104.86 231.834 105.321C235.753 110.393 240.018 115.235 244.975 119.27C247.05 120.883 247.396 122.267 245.09 123.996C241.171 120.538 237.828 116.503 234.485 112.353C234.024 111.777 233.447 110.624 232.41 111.431C231.373 112.238 232.295 112.929 232.871 113.621C236.445 118.232 240.364 122.613 244.514 126.647C245.897 128.03 247.165 129.76 245.206 132.18C241.978 128.261 238.865 124.457 235.638 120.538C235.061 119.846 234.6 118.808 233.563 119.615C232.41 120.538 233.563 121.229 234.024 121.921C238.981 129.068 246.128 134.716 249.701 142.901C249.932 143.362 250.162 143.823 250.393 144.284C250.047 144.63 249.701 144.976 249.356 145.207C243.476 138.866 237.597 132.526 231.603 126.301C230.22 124.918 228.491 123.881 226.992 122.843C226.646 122.613 225.955 122.613 225.724 122.728C225.148 123.304 225.724 123.65 226.185 123.996C235.753 130.797 242.9 140.019 251.085 148.088C252.929 149.933 253.505 152.354 255.119 155.12C248.433 148.895 242.324 143.247 236.214 137.598C234.37 135.869 232.41 134.371 230.45 132.872C229.989 132.526 229.413 131.835 228.952 132.526C228.491 133.218 229.413 133.448 229.759 133.794C239.211 141.979 248.318 150.509 256.387 160.077C257.31 161.23 257.31 161.23 257.425 162.728C257.079 163.074 256.618 163.535 256.272 163.881C251.2 158.348 246.243 152.699 241.171 147.166C240.479 146.475 239.672 145.091 238.52 146.244C237.482 147.397 238.865 147.973 239.557 148.665C244.283 153.276 249.01 157.887 253.621 162.613C255.235 164.227 257.194 165.726 256.272 168.607C255.926 169.875 256.964 171.028 258.347 172.296C231.142 165.495 204.398 159.04 176.04 155.236C179.037 153.967 181.228 155.236 183.303 155.12C184.916 155.005 187.337 157.195 187.683 155.005C188.029 153.045 184.801 153.045 183.187 153.161C177.308 153.276 171.775 151.086 166.357 149.933C161.746 149.011 157.711 150.74 153.446 149.472C154.023 147.858 153.446 147.166 151.487 147.512C147.567 148.204 143.648 148.895 139.844 149.587C140.42 149.011 142.726 149.126 141.803 147.397C140.881 145.668 139.267 146.936 138.23 147.397C134.426 149.126 129.815 149.126 126.702 152.008C123.014 151.777 120.247 153.737 117.711 156.504C117.365 155.351 119.555 154.198 117.941 153.506C116.212 152.699 115.751 154.544 114.944 155.697C113.1 158.233 112.178 161.115 111.486 164.112C111.255 164.803 110.91 165.149 110.103 165.264C97.7682 168.607 85.4337 166.994 72.984 166.187C73.7909 164.342 74.8284 166.071 75.9811 165.61C75.2895 164.803 74.8284 164.112 74.252 163.535C73.6756 162.844 73.0992 162.152 72.7534 161.23C74.4825 162.728 76.0964 164.342 77.8255 165.841C76.3269 162.152 73.5603 159.731 70.6784 156.734C71.0243 162.037 67.7966 159.04 66.5285 158.694C63.5314 157.887 60.88 156.042 57.9981 155.351C54.0788 154.313 50.1594 157.08 46.0095 156.158C45.5484 156.042 44.2803 158.117 42.897 158.694C43.9345 139.097 43.9345 119.154 54.194 101.056ZM84.8573 65.3206C86.7017 62.2082 89.5836 61.6318 92.1197 60.5943C89.9295 62.0929 87.6239 63.5915 84.8573 65.3206ZM34.0208 223.363C31.3695 223.594 28.1418 224.977 25.8363 222.211C18.8045 213.565 15.3462 203.536 14.7698 192.469C14.7698 191.547 15.3462 189.818 13.9629 189.818C12.2338 189.818 13.0407 191.663 13.0407 192.585C13.2712 202.96 16.4989 212.412 21.5711 221.98C18.4586 218.752 16.7295 215.294 15.5767 211.605C13.0407 203.305 10.8504 194.89 12.6949 186.129C13.3865 182.786 15.9226 180.711 17.8823 178.175C18.4586 177.484 19.035 176.677 18.4586 175.755C17.8823 174.832 16.96 174.717 16.0378 174.948C11.6574 175.985 6.58525 175.639 3.70336 180.135C3.01171 177.253 3.47281 175.755 6.93108 174.602C29.9862 166.533 53.6177 167.57 77.2491 170.106C94.8863 172.066 111.717 169.414 128.547 164.342C139.037 161.23 149.873 157.887 160.824 157.772C173.735 157.541 186.646 159.385 199.211 162.959C199.787 163.074 200.133 163.42 200.018 164.112C199.787 165.034 199.211 164.919 198.519 164.919C190.68 165.149 183.187 162.383 175.464 161.576C162.092 160.192 148.951 161.806 135.924 164.573C127.048 166.533 118.403 168.953 109.872 172.066C99.3821 175.87 88.7767 172.873 78.4019 171.028C75.7506 170.567 73.2145 169.875 70.5632 169.76C56.6148 169.53 42.6665 169.184 28.8334 172.066C27.4501 172.412 25.9515 172.757 24.6835 173.334C23.646 173.795 21.5711 173.564 22.0322 175.293C22.4933 177.138 23.9919 175.293 25.1446 175.524C21.2252 178.406 16.6142 180.596 15.0004 185.668C14.7698 186.59 14.1934 187.513 15.4615 187.974C16.7295 188.435 16.96 187.397 17.3059 186.59C19.4961 181.403 30.4473 174.602 35.9805 174.948C36.6722 174.948 36.7874 175.293 36.7874 175.87C36.3263 190.395 37.4791 205.035 35.1736 219.444C35.0583 220.827 35.5194 223.248 34.0208 223.363ZM201.17 170.913C196.444 185.322 197.827 199.732 192.064 212.758C194.369 206.072 194.6 199.04 195.868 192.239C197.02 185.438 196.444 178.06 201.17 170.913ZM126.933 216.332C127.74 216.908 129.584 217.484 128.777 218.637C128.086 219.675 126.702 218.291 125.895 217.715C119.094 213.45 116.212 206.303 112.408 199.847C110.103 195.928 108.604 191.778 108.258 187.167C108.028 183.939 108.835 181.288 110.679 179.443C108.95 194.66 114.829 206.879 126.933 216.332ZM113.676 193.738C112.985 191.893 112.178 189.933 111.947 187.974C111.371 180.25 114.368 177.023 121.4 174.025C139.844 166.302 158.749 166.302 178 169.414C182.265 170.106 186.069 171.835 189.528 174.371C190.334 174.948 190.45 175.87 190.45 176.677C190.45 179.328 190.45 181.979 190.45 185.438C189.989 192.931 189.412 201.346 186.3 209.3C184.801 212.989 182.611 215.179 178.231 215.64C167.51 217.023 156.789 218.291 145.953 218.752C128.777 219.675 117.711 205.035 113.676 193.738ZM93.2724 188.55C91.428 193.392 89.6989 197.772 87.8545 202.498C87.6239 197.081 90.3906 189.703 93.2724 188.55ZM79.9005 192.239C74.7131 190.51 70.2173 187.743 64.9147 187.513C58.8051 187.167 53.5024 189.357 48.315 192.124C47.2775 192.7 45.4331 193.392 46.3553 195.121C47.3928 196.965 49.2372 195.697 50.7358 195.467C51.5427 195.351 52.3496 194.544 53.2718 194.314C55.6926 193.853 58.5745 192.008 59.4967 196.504C59.8425 198.003 61.5717 199.155 62.6092 200.424C61.3411 201.115 59.1509 199.155 59.0356 201.115C58.9203 203.075 61.4564 202.383 62.8397 202.614C68.4882 203.305 73.7909 202.153 78.7477 199.155C78.863 200.885 78.2866 201.576 76.9033 202.268C71.9465 204.573 66.7591 205.496 61.3411 205.035C60.4189 204.919 59.3814 204.919 59.1509 206.187C58.9203 207.571 60.0731 207.801 60.9953 207.801C66.5285 208.262 71.8312 207.571 77.3644 205.15C75.6353 210.914 74.3673 216.562 70.6784 220.597C69.1799 222.211 65.2605 221.749 62.3786 221.98C55.2315 222.441 48.1997 224.055 40.7068 223.479C43.4734 212.989 43.1276 202.383 43.1276 191.778C43.1276 191.432 43.4734 190.971 43.704 190.856C54.4246 185.899 65.491 184.054 77.1339 187.397C77.8255 187.628 78.6325 187.743 78.863 186.821C79.2088 185.668 78.1714 185.553 77.3644 185.322C66.6438 181.634 56.269 182.21 46.0095 187.052C45.0873 187.513 44.1651 187.858 43.0123 188.32C42.7818 183.824 42.4359 179.443 42.2054 174.832C52.4649 174.717 62.8397 173.91 73.0992 175.524C77.8255 176.216 80.4769 178.982 79.9005 184.17C79.6699 186.59 79.9005 189.357 79.9005 192.239ZM65.3758 194.314C65.3758 195.006 65.0299 196.158 64.223 195.928C62.955 195.467 62.2633 194.199 62.3786 192.469C63.4161 193.161 65.2605 192.354 65.3758 194.314ZM302.382 267.283C298.693 270.511 295.35 273.969 291.892 277.428C289.356 279.964 280.365 279.272 278.52 276.044C277.252 273.969 276.445 271.549 275.293 269.358C275.062 269.012 274.486 268.551 274.14 268.551C273.218 268.551 273.102 269.358 272.872 270.165C270.681 279.157 270.566 288.725 267.684 297.486C263.995 308.783 258.693 319.157 250.969 328.61C236.79 346.132 218.807 358.582 199.902 370.109C198.404 371.031 196.905 373.567 195.868 373.337C191.141 372.299 189.412 376.219 186.991 378.409C172.928 390.167 157.135 398.352 139.844 404.115C137.423 404.922 135.117 406.306 132.697 406.997C121.976 409.879 112.178 406.421 102.033 402.963C86.817 397.89 78.9783 387.055 75.9811 372.415C71.8312 352.011 63.4161 333.221 55.8079 314.085C50.1594 299.906 44.7415 285.612 39.4388 271.318C34.8278 258.753 36.4416 245.842 38.286 233.046C38.7471 230.049 40.361 229.358 42.7818 229.242C52.8107 228.666 62.8397 228.551 72.7534 226.245C73.4451 226.13 74.1367 226.361 74.9436 226.476C75.0589 226.476 75.2895 226.476 75.4047 226.476C77.3644 226.937 72.7534 236.274 72.177 237.773C70.5632 241.923 68.6035 246.303 65.0299 249.185C59.8425 253.45 63.3008 264.056 70.2173 265.324C78.863 266.822 86.4712 270.626 94.5405 273.393C94.6558 269.358 92.6961 267.168 87.7392 266.822C78.863 266.015 72.6381 256.447 72.984 248.493C73.3298 241.116 76.9033 235.006 79.7852 228.551C85.7795 215.179 91.7739 201.807 96.6154 187.858C99.1515 188.204 100.42 190.164 101.342 192.354C105.376 201.23 108.835 210.337 115.405 217.945C120.939 224.401 128.201 225.554 135.809 225.899C152.178 226.591 168.086 223.479 184.11 220.943C192.755 219.559 197.251 212.527 198.404 203.997C199.556 194.89 200.248 185.553 202.784 176.677C203.015 176.1 203.245 175.755 203.937 175.985C220.537 181.173 237.713 183.824 254.428 188.55C254.658 188.665 254.889 188.781 255.35 189.011C253.736 189.127 251.892 188.089 251.661 190.279C251.43 192.239 253.39 191.778 254.543 192.354C255.58 192.931 256.387 193.853 257.31 194.544C257.54 194.66 257.771 194.775 258.001 194.89C264.802 197.657 271.143 201.692 278.405 203.421C279.558 203.651 280.826 203.997 281.172 202.383C281.517 200.885 280.134 200.654 279.097 200.424C274.14 199.155 269.529 196.965 265.148 194.544C269.875 196.043 274.716 197.657 279.442 199.155C279.904 199.271 280.365 199.386 280.826 199.386C282.324 199.155 284.86 200.424 284.976 197.772C285.091 195.236 282.67 196.274 281.172 196.158C277.829 195.697 274.716 194.429 270.912 192.931C281.633 195.006 291.662 196.965 302.267 198.925C292.238 208.493 285.667 219.444 285.667 233.508C287.742 232.585 287.858 230.51 288.319 228.781C290.163 221.634 292.584 214.718 297.195 208.723C300.884 203.997 305.264 199.962 310.336 196.735C317.253 192.354 326.821 197.081 327.282 205.265C329.126 230.28 321.172 250.914 302.382 267.283ZM73.0992 261.635C70.2173 258.983 66.5285 260.828 65.7216 257.254C65.1452 254.372 66.1827 252.067 68.7188 249.761C68.4882 254.142 70.6784 257.024 73.0992 261.635Z" />
<path d="M258.347 195.121C263.88 199.271 270.22 202.153 276.445 205.15C277.367 205.611 278.636 205.842 278.059 207.225C277.483 208.608 276.33 208.032 275.408 207.686C268.722 205.035 262.497 201.576 256.503 197.657C255.811 197.196 255.119 196.619 255.465 195.697C255.811 194.66 256.618 194.545 257.54 194.775C257.771 194.89 258.001 195.006 258.347 195.121Z" />
<path d="M91.0822 295.987C114.714 298.293 138.23 294.258 161.746 293.336C164.397 293.221 167.049 291.376 169.7 290.108C170.853 289.647 171.89 289.186 172.697 290.339C173.504 291.491 172.813 292.529 172.006 293.336C160.132 306.131 146.76 316.276 129.815 321.463C118.748 324.806 107.797 325.152 96.7307 322.962C86.2407 320.771 79.3241 313.855 73.4451 305.555C72.2923 303.826 71.3701 301.405 68.373 301.866C67.6813 301.982 67.2202 301.059 67.2202 300.252C67.3355 299.215 67.9119 298.754 68.8341 298.639C76.2117 297.486 83.4741 295.411 91.0822 295.987ZM153.907 297.371C150.103 297.486 146.76 297.601 143.417 297.832C132.466 298.639 121.515 299.676 110.449 300.137C102.495 300.368 94.5405 299.676 86.5865 299.33C86.1254 299.33 85.3185 299.33 85.0879 299.561C83.5893 301.175 85.8949 309.013 88.0851 309.474C102.033 312.817 116.097 313.279 130.045 310.858C139.152 309.474 148.489 306.938 153.907 297.371ZM148.144 308.783C129.123 318.696 109.296 315.93 89.4684 313.855C90.6211 315.93 91.5434 318.12 94.4252 318.927C113.33 324.114 130.506 319.734 146.876 310.166C147.452 309.82 147.683 309.244 148.144 308.783Z" />
<path d="M304.342 220.942C302.498 221.634 301.806 224.862 299.962 223.478C298.232 222.21 299.616 219.674 300.192 217.945C302.959 210.452 308.722 205.841 315.985 203.42C320.365 201.922 325.092 205.841 325.207 210.568C325.207 211.72 324.976 212.758 323.939 213.334C322.556 214.141 321.288 213.68 320.135 212.988C318.867 212.181 317.022 210.452 316.215 210.798C313.564 212.066 311.259 214.026 308.953 215.755C308.261 216.331 309.068 216.792 309.414 217.254C312.527 221.173 311.835 225.669 311.028 230.164C310.797 231.548 309.76 232.124 308.377 232.124C306.993 232.124 306.993 230.856 306.763 230.049C306.302 226.821 304.457 224.17 304.342 220.942Z" />
<path d="M184.455 304.057C184.11 311.78 181.689 319.734 179.383 327.688C179.153 328.61 178.576 329.187 177.539 328.841C176.386 328.495 176.501 327.573 176.732 326.535C178.807 317.659 181.919 308.898 180.882 299.446C179.499 287.226 172.006 278.465 164.282 269.82C162.322 267.63 160.363 265.324 158.518 263.019C157.942 262.327 157.711 261.52 158.403 260.828C158.979 260.137 159.902 260.137 160.363 260.828C168.432 270.511 178.461 278.696 182.496 291.261C183.764 295.296 184.34 299.215 184.455 304.057Z" />
<path d="M108.719 342.788C103.647 341.52 99.1514 339.907 95.0015 337.486C93.0418 336.333 91.1974 335.065 89.2377 333.912C88.4308 333.451 87.8544 332.875 88.4308 331.953C88.8919 331.146 89.5836 331.261 90.3905 331.607C100.881 336.103 111.255 335.641 122.091 332.068C124.627 331.261 127.279 330.454 129.93 329.417C130.622 329.186 131.313 329.417 131.544 330.108C131.659 330.569 131.659 331.491 131.313 331.722C124.281 336.909 116.558 340.022 108.719 342.788Z" />
<path d="M322.555 220.827C320.48 229.704 317.253 239.041 312.411 247.802C310.451 251.491 308.722 255.295 305.264 257.831C303.881 258.753 302.497 259.329 301.229 258.061C299.846 256.678 300.423 255.18 301.691 254.257C313.449 245.842 316.676 232.816 320.25 219.905C320.48 219.098 320.826 218.522 321.633 218.637C322.325 218.753 322.671 219.214 322.555 220.827Z" />
<path d="M63.5313 269.128C63.0702 270.626 62.8396 272.471 62.0327 273.854C55.2314 286.419 59.1508 298.408 63.5313 310.396C64.1076 312.01 66.759 314.546 64.5688 315.468C62.4938 316.391 62.148 312.817 61.5716 311.203C58.1133 302.327 54.194 293.566 55.3467 283.652C56.0384 278.234 59.0355 273.393 60.5341 268.205C60.7647 267.398 61.4563 267.168 62.2632 267.283C63.0702 267.629 63.416 268.205 63.5313 269.128Z" />
<path d="M305.264 238.925C305.264 243.19 298.232 251.605 294.774 252.181C293.275 252.412 292.007 251.951 291.085 250.683C290.163 249.53 290.509 248.262 291.085 246.994C292.238 244.804 294.313 243.881 296.388 242.959C301.46 240.769 302.613 237.541 300.192 232.469C299.616 231.316 299.731 230.394 300.884 229.933C302.036 229.472 302.152 230.625 302.382 231.316C303.65 233.968 305.495 236.504 305.264 238.925Z" />
<path d="M259.731 206.188C263.304 209.531 267.223 212.182 271.719 213.796C272.641 214.142 273.679 214.603 273.218 215.871C272.757 217.024 271.719 216.793 270.912 216.447C265.494 214.718 261.229 211.26 256.849 207.802C256.157 207.225 256.388 206.649 256.618 205.842C257.195 204.113 256.042 200.655 260.192 202.845C264.572 205.15 269.183 207.11 273.564 209.3C274.601 209.761 275.984 210.338 275.177 211.836C274.486 213.22 273.218 212.528 272.18 212.067C268.146 210.107 263.996 208.147 259.731 206.188Z" />
<path d="M133.734 249.416C133.734 255.179 128.547 261.865 123.59 263.018C122.783 263.249 122.207 262.903 121.861 262.211C121.515 261.52 121.63 260.828 122.322 260.367C123.129 259.675 124.051 259.099 124.973 258.522C132.12 253.796 133.042 248.955 128.431 241.577C127.74 240.539 125.895 239.156 127.74 238.119C129.469 236.966 129.815 239.271 130.622 240.309C132.927 243.076 133.849 246.419 133.734 249.416Z" />
<path d="M113.676 262.326C113.561 263.709 112.869 264.401 111.717 264.171C106.99 263.364 102.149 261.404 97.6531 264.978C97.192 265.439 96.3851 264.862 96.0393 264.171C95.6934 263.479 95.8087 262.787 96.3851 262.441C100.535 260.251 104.685 257.83 109.642 258.637C111.601 259.098 113.215 260.136 113.676 262.326Z" />
<path d="M288.78 262.672C286.244 262.787 285.321 262.441 285.206 261.173C285.091 259.905 285.898 259.214 287.051 259.098C290.163 258.637 293.275 258.176 296.273 257.715C297.195 257.6 298.693 256.908 298.924 258.176C299.154 259.214 298.232 260.712 296.964 261.058C293.967 261.75 290.739 262.326 288.78 262.672Z" />
<path d="M267.223 221.058C262.843 220.02 258.923 217.6 255.234 214.948C254.658 214.487 254.658 213.68 255.119 212.989C255.695 212.297 256.387 212.066 257.079 212.527C260.652 214.718 264.226 216.793 268.145 218.176C268.837 218.407 269.183 219.098 268.952 219.905C268.837 220.827 268.26 221.058 267.223 221.058Z" />
<path d="M103.762 217.715C104.224 215.755 104.915 212.873 105.607 209.991C105.837 209.184 106.299 208.608 107.221 208.838C108.258 209.184 108.258 209.991 107.912 210.798C106.99 214.026 106.068 217.253 106.183 220.596C106.183 221.403 106.529 222.671 105.146 222.787C103.762 222.902 104.108 221.519 103.993 220.712C103.878 220.02 103.878 219.328 103.762 217.715Z" />
<path d="M255.811 216.102C258.462 217.831 261.114 219.445 263.534 221.174C263.765 221.289 263.534 222.326 263.304 222.557C262.958 222.903 262.151 223.018 261.69 222.788C259.384 221.52 257.194 220.251 255.004 218.868C254.428 218.522 254.082 217.831 254.543 217.139C254.773 216.793 255.35 216.447 255.811 216.102Z" />
<path d="M96.5001 248.609C95.8085 250.453 95.0015 252.874 94.0793 255.295C93.9641 255.641 93.1571 255.871 92.8113 255.871C92.1197 255.756 91.8891 255.179 92.1197 254.488C92.8113 252.067 93.503 249.762 94.1946 247.341C94.4252 246.764 94.8863 246.419 95.5779 246.534C96.2696 246.764 96.5001 247.341 96.5001 248.609Z" />
<path d="M255.465 170.106C255.235 170.337 255.119 170.798 254.889 170.798C254.428 170.798 253.967 170.682 253.621 170.337C251.546 168.262 249.471 166.071 247.281 163.881C246.935 163.535 246.474 163.074 246.935 162.498C247.05 162.383 247.742 162.267 247.972 162.498C250.393 164.803 252.699 167.109 255.119 169.53C255.35 169.53 255.35 169.76 255.465 170.106Z" />
<path d="M246.243 157.195C249.471 160.769 252.699 164.227 256.042 167.801C255.926 167.916 255.696 168.031 255.581 168.262C252.353 164.688 249.125 161.23 245.782 157.656C245.897 157.426 246.013 157.311 246.243 157.195Z" />
<path d="M148.72 193.738C147.337 189.242 144.916 188.665 138.806 191.086C137.308 191.663 135.924 192.47 134.311 193.161C134.887 193.738 136.04 193.968 135.579 195.121C135.233 196.043 134.311 196.043 133.619 196.274C133.504 196.274 133.388 196.389 133.273 196.274C131.313 196.158 128.547 196.85 127.625 194.89C126.818 193.046 129.7 192.815 130.737 191.663C131.659 190.625 132.697 189.818 133.734 188.896C133.158 188.435 132.236 188.204 132.351 187.282C132.466 186.36 133.158 186.129 133.965 185.784C147.913 180.827 161.746 180.596 175.579 186.014C177.769 186.821 180.075 187.743 182.265 188.55C183.648 189.127 184.686 190.279 184.225 191.663C183.764 193.392 182.15 192.815 180.882 192.354C179.383 191.893 178 191.086 176.501 190.625C175.579 190.279 174.311 188.665 173.504 190.856C173.043 192.124 170.853 193.853 174.311 194.083C174.542 194.083 174.772 194.66 174.772 195.006C174.772 195.813 174.081 195.928 173.504 196.043C166.818 196.619 160.132 197.311 153.446 196.619C149.642 196.274 145.838 196.389 141.919 196.274C141.112 196.274 140.074 196.504 139.959 195.351C139.844 194.083 140.997 194.314 141.688 194.199C144.109 194.083 146.414 193.968 148.72 193.738ZM156.328 190.279C157.135 190.279 157.712 190.279 157.712 189.357C157.712 188.435 157.135 187.974 156.328 187.859C155.406 187.743 155.06 188.55 154.945 189.242C154.83 190.279 155.752 190.049 156.328 190.279Z" />
<path d="M130.276 183.363C131.659 181.058 133.619 180.251 135.463 179.444C146.76 174.256 158.057 176.447 169.354 179.674C172.006 180.481 174.542 181.404 177.193 182.326C177.769 182.556 178.692 182.672 178.461 183.478C178.115 184.516 177.193 183.94 176.617 183.709C166.588 179.79 156.098 178.176 145.262 178.867C140.074 179.329 135.579 181.404 130.276 183.363Z" />
<path d="M161.17 207.57C154.83 207.916 149.181 205.726 143.302 203.766C142.495 203.536 141.919 202.959 142.264 202.037C142.61 201.115 143.302 200.884 144.224 201.23C152.524 204.689 161.054 205.611 169.931 203.651C170.738 203.421 171.429 203.766 171.66 204.689C171.89 205.726 171.199 206.187 170.276 206.302C167.164 206.763 164.167 207.225 161.17 207.57Z" />
</svg>
