<svg width="360" height="212" viewBox="0 0 360 212" xmlns="http://www.w3.org/2000/svg">
<path d="M239.179 73.2854C236.448 73.2854 234.433 72.5691 233.135 71.1364C231.881 69.6589 231.255 67.8456 231.255 65.6966C231.255 64.7564 231.367 63.7042 231.59 62.5401C231.814 61.3313 232.038 60.1672 232.262 59.0479C232.531 57.9286 232.71 57.2123 232.799 56.8989C233.157 55.3318 233.493 53.7872 233.807 52.2649C234.12 50.7427 234.277 49.5115 234.277 48.5712C234.277 46.2879 233.471 45.1462 231.859 45.1462C230.74 45.1462 229.732 45.6834 228.837 46.758C227.986 47.8325 227.292 49.2204 226.755 50.9218C225.412 57.951 224.046 65.2712 222.658 72.8825H212.988L222.188 30.0356C220.621 29.9013 217.666 29.5207 213.323 28.8939L203.854 72.8825H194.183L203.787 28.2895C199.534 28.4686 196.22 29.5655 193.848 31.5802C191.475 33.595 190.288 37.0648 190.288 41.9898C190.288 43.6463 190.445 44.8104 190.758 45.482C191.072 46.1088 191.228 46.467 191.228 46.5565C188.811 46.5565 186.997 46.064 185.789 45.079C184.625 44.0493 184.042 42.3703 184.042 40.0422C184.042 36.9081 184.893 34.0203 186.594 31.3788C188.296 28.7372 190.915 26.6105 194.452 24.9987C197.989 23.387 202.399 22.5811 207.682 22.5811C208.578 22.5811 210.48 22.7825 213.391 23.1855C218.718 23.9466 222.86 24.3272 225.815 24.3272C229.665 24.3272 232.374 23.7899 233.941 22.7154C233.269 23.969 232.71 25.1554 232.262 26.2748C231.859 27.3941 231.344 29.2297 230.717 31.7817C230.091 34.289 229.285 38.005 228.3 42.93C230.583 40.3332 233.247 39.0348 236.292 39.0348C238.575 39.0348 240.388 39.6616 241.731 40.9152C243.074 42.1688 243.746 44.0717 243.746 46.6237C243.746 47.9221 243.589 49.3771 243.276 50.9889C242.963 52.556 242.515 54.4812 241.933 56.7645C241.575 58.1525 241.239 59.518 240.925 60.8612C240.657 62.1596 240.522 63.1893 240.522 63.9505C240.522 64.8459 240.724 65.5399 241.127 66.0324C241.53 66.5249 242.224 66.7711 243.209 66.7711C244.552 66.7711 245.626 66.301 246.432 65.3608C247.238 64.3758 248.044 62.8759 248.85 60.8612H251.671C250.014 65.7861 248.089 69.0992 245.895 70.8006C243.746 72.4572 241.507 73.2854 239.179 73.2854Z" />
<path d="M258.299 73.2854C255.031 73.2854 252.479 72.4348 250.643 70.7334C248.808 68.9873 247.89 66.2786 247.89 62.6073C247.89 59.518 248.494 56.1153 249.703 52.3993C250.912 48.6832 252.882 45.482 255.613 42.7956C258.344 40.0646 261.814 38.699 266.023 38.699C270.948 38.699 273.41 40.8481 273.41 45.1462C273.41 47.6534 272.694 49.9592 271.261 52.0635C269.828 54.1678 267.925 55.8691 265.553 57.1675C263.18 58.4211 260.65 59.1375 257.964 59.3165C257.874 60.3015 257.829 60.9731 257.829 61.3313C257.829 65.0474 259.217 66.9054 261.993 66.9054C263.247 66.9054 264.59 66.5696 266.023 65.898C267.455 65.2265 268.754 64.3758 269.918 63.346C268.709 69.9723 264.836 73.2854 258.299 73.2854ZM258.434 56.093C260.135 56.0482 261.724 55.4885 263.202 54.414C264.724 53.3395 265.933 51.9739 266.829 50.3174C267.769 48.616 268.239 46.8475 268.239 45.0119C268.239 43.1762 267.679 42.2584 266.56 42.2584C264.993 42.2584 263.426 43.6911 261.859 46.5565C260.337 49.3771 259.195 52.556 258.434 56.093Z" />
<path d="M199.22 151.844C196.4 151.933 194.228 153.008 192.706 155.067C191.228 157.127 190.49 160.686 190.49 165.745C190.49 167.402 190.646 168.566 190.96 169.238C191.273 169.864 191.43 170.223 191.43 170.312C189.012 170.312 187.199 169.82 185.99 168.835C184.826 167.805 184.244 166.126 184.244 163.798C184.244 160.619 185.028 157.731 186.595 155.134C188.162 152.493 190.646 150.366 194.049 148.754C197.497 147.143 201.862 146.337 207.145 146.337C208.219 146.337 209.652 146.449 211.443 146.672C214.667 146.986 216.95 147.143 218.293 147.143C220.666 147.143 222.681 146.874 224.337 146.337C224.203 146.74 223.957 147.635 223.599 149.023C223.241 150.366 222.591 151.53 221.651 152.515C220.756 153.455 219.524 154.082 217.957 154.396C215.316 154.396 212.182 153.97 208.555 153.12L205.735 166.484H215.54L214.465 171.454H204.66L199.22 196.705H189.55L199.22 151.844Z" />
<path d="M224.068 197.108C220.755 197.108 218.18 196.258 216.345 194.556C214.509 192.81 213.591 190.101 213.591 186.43C213.591 183.341 214.195 179.938 215.404 176.222C216.613 172.506 218.583 169.305 221.314 166.618C224.045 163.887 227.515 162.522 231.724 162.522C236.649 162.522 239.111 164.671 239.111 168.969C239.111 171.476 238.395 173.782 236.962 175.886C235.529 177.991 233.627 179.692 231.254 180.99C228.881 182.244 226.351 182.96 223.665 183.139C223.575 184.482 223.53 185.378 223.53 185.826C223.53 188.019 223.911 189.519 224.672 190.325C225.433 191.086 226.665 191.467 228.366 191.467C230.784 191.467 232.843 190.907 234.544 189.788C236.291 188.669 238.193 186.967 240.253 184.684H242.536C237.567 192.967 231.41 197.108 224.068 197.108ZM224.202 179.916C225.859 179.826 227.426 179.244 228.903 178.17C230.425 177.095 231.634 175.73 232.53 174.073C233.47 172.416 233.94 170.67 233.94 168.835C233.94 166.999 233.38 166.081 232.261 166.081C230.649 166.081 229.06 167.491 227.493 170.312C225.971 173.133 224.874 176.334 224.202 179.916Z" />
<path d="M246.887 197.108C244.738 197.108 242.992 196.437 241.649 195.093C240.351 193.75 239.701 191.736 239.701 189.049C239.701 187.93 239.88 186.475 240.239 184.684L247.425 151.038L257.364 149.695L249.641 185.96C249.462 186.632 249.372 187.348 249.372 188.109C249.372 189.004 249.574 189.654 249.977 190.057C250.424 190.415 251.141 190.594 252.126 190.594C253.424 190.594 254.633 190.057 255.752 188.982C256.872 187.863 257.677 186.43 258.17 184.684H260.991C259.334 189.519 257.207 192.81 254.611 194.556C252.014 196.258 249.439 197.108 246.887 197.108Z" />
<path d="M264.792 197.108C262.643 197.108 260.897 196.437 259.553 195.093C258.255 193.75 257.606 191.736 257.606 189.049C257.606 187.93 257.785 186.475 258.143 184.684L265.329 151.038L275.268 149.695L267.545 185.96C267.366 186.632 267.277 187.348 267.277 188.109C267.277 189.004 267.478 189.654 267.881 190.057C268.329 190.415 269.045 190.594 270.03 190.594C271.329 190.594 272.537 190.057 273.657 188.982C274.776 187.863 275.582 186.43 276.074 184.684H278.895C277.238 189.519 275.112 192.81 272.515 194.556C269.918 196.258 267.344 197.108 264.792 197.108Z" />
<path d="M284.107 197.108C281.555 197.108 279.428 196.235 277.727 194.489C276.025 192.743 275.175 190.012 275.175 186.296C275.175 182.983 275.824 179.513 277.122 175.886C278.465 172.215 280.435 169.126 283.032 166.618C285.674 164.066 288.808 162.79 292.434 162.79C294.27 162.79 295.635 163.104 296.531 163.731C297.426 164.357 297.874 165.186 297.874 166.215V166.686L298.613 163.126H308.283L303.448 185.96C303.269 186.632 303.179 187.348 303.179 188.109C303.179 189.004 303.381 189.654 303.784 190.057C304.232 190.415 304.948 190.594 305.933 190.594C306.56 190.594 307.052 190.504 307.41 190.325C306.425 192.832 305.485 194.601 304.59 195.631C303.694 196.616 302.396 197.108 300.695 197.108C298.859 197.108 297.359 196.571 296.195 195.496C295.076 194.377 294.382 192.832 294.113 190.863C291.382 195.026 288.047 197.108 284.107 197.108ZM288.472 190.594C289.591 190.594 290.688 190.079 291.763 189.049C292.882 187.975 293.643 186.52 294.046 184.684L297.27 169.506C297.27 168.924 297.046 168.365 296.598 167.827C296.15 167.245 295.456 166.954 294.516 166.954C292.725 166.954 291.113 168.006 289.681 170.111C288.248 172.17 287.129 174.677 286.323 177.632C285.517 180.543 285.114 183.117 285.114 185.356C285.114 187.594 285.427 189.027 286.054 189.654C286.726 190.28 287.532 190.594 288.472 190.594Z" />
<path d="M199.22 87.8336C196.4 87.9232 194.228 88.9977 192.706 91.0572C191.228 93.1167 190.49 96.6761 190.49 101.735C190.49 103.392 190.646 104.556 190.96 105.228C191.273 105.854 191.43 106.213 191.43 106.302C189.012 106.302 187.199 105.81 185.99 104.825C184.826 103.795 184.244 102.116 184.244 99.7878C184.244 96.609 185.028 93.7212 186.595 91.1244C188.162 88.4828 190.646 86.3561 194.049 84.7444C197.497 83.1326 201.862 82.3267 207.145 82.3267C208.219 82.3267 209.652 82.4386 211.443 82.6625C214.667 82.9759 216.95 83.1326 218.293 83.1326C220.666 83.1326 222.681 82.8639 224.337 82.3267C224.203 82.7296 223.957 83.6251 223.599 85.013C223.241 86.3562 222.591 87.5202 221.651 88.5052C220.756 89.4454 219.524 90.0722 217.957 90.3856C215.316 90.3856 212.182 89.9603 208.555 89.1096L205.735 102.474H215.54L214.465 107.444H204.66L199.22 132.695H189.55L199.22 87.8336Z" />
<path d="M219.031 99.1162H228.702L227.829 103.28C229.351 101.937 230.716 100.907 231.925 100.191C233.179 99.4744 234.522 99.1162 235.955 99.1162C237.387 99.1162 238.507 99.6087 239.313 100.594C240.163 101.579 240.589 102.765 240.589 104.153C240.589 105.451 240.163 106.593 239.313 107.578C238.462 108.563 237.275 109.056 235.753 109.056C234.768 109.056 234.097 108.832 233.739 108.384C233.425 107.892 233.179 107.198 233 106.302C232.865 105.72 232.731 105.295 232.597 105.026C232.462 104.757 232.216 104.623 231.858 104.623C230.918 104.623 230.112 104.825 229.44 105.228C228.814 105.586 227.985 106.235 226.956 107.175L221.583 132.695H211.912L219.031 99.1162Z" />
<path d="M246.363 133.098C244.214 133.098 242.467 132.427 241.124 131.083C239.826 129.74 239.177 127.726 239.177 125.039C239.177 123.92 239.356 122.465 239.714 120.674L244.281 99.1162H253.952L249.116 121.95C248.982 122.622 248.915 123.248 248.915 123.83C248.915 125.666 249.586 126.584 250.929 126.584C252.183 126.584 253.258 126.069 254.153 125.039C255.048 123.965 255.765 122.51 256.302 120.674L260.869 99.1162H270.54L265.704 121.95C265.525 122.622 265.436 123.338 265.436 124.099C265.436 124.994 265.637 125.644 266.04 126.047C266.488 126.405 267.204 126.584 268.189 126.584C269.443 126.584 270.517 126.047 271.413 124.972C272.353 123.898 273.092 122.465 273.629 120.674H276.45C274.793 125.509 272.733 128.8 270.271 130.546C267.853 132.248 265.413 133.098 262.951 133.098C261.026 133.098 259.481 132.561 258.317 131.486C257.197 130.412 256.526 128.822 256.302 126.718C254.78 129.181 253.168 130.86 251.467 131.755C249.81 132.65 248.109 133.098 246.363 133.098Z" />
<path d="M285.508 149.485C283.359 149.485 281.568 148.925 280.135 147.806C278.703 146.687 277.986 145.075 277.986 142.97C277.986 140.418 279.016 138.359 281.076 136.792C283.135 135.27 285.754 133.994 288.933 132.964L289.739 129.405C287.456 131.867 284.769 133.098 281.68 133.098C279.128 133.098 277.001 132.225 275.3 130.479C273.599 128.733 272.748 126.002 272.748 122.286C272.748 118.973 273.397 115.503 274.696 111.876C276.039 108.205 278.009 105.116 280.605 102.608C283.247 100.056 286.381 98.7804 290.008 98.7804C291.843 98.7804 293.209 99.0938 294.104 99.7206C295 100.347 295.447 101.176 295.447 102.205V102.608L296.186 99.1162H305.857L299.208 130.278C301.357 129.561 303.081 128.487 304.379 127.054C305.678 125.621 306.775 123.495 307.67 120.674H310.491C309.282 124.659 307.648 127.591 305.588 129.472C303.529 131.307 301.201 132.561 298.604 133.233L297.596 138.068C296.701 142.411 295.156 145.388 292.963 147C290.769 148.657 288.284 149.485 285.508 149.485ZM286.045 126.584C287.075 126.584 288.127 126.114 289.202 125.174C290.276 124.233 291.015 122.957 291.418 121.346L294.843 105.429C294.843 104.892 294.619 104.355 294.171 103.817C293.724 103.235 293.03 102.944 292.089 102.944C290.299 102.944 288.687 103.996 287.254 106.101C285.821 108.16 284.702 110.667 283.896 113.622C283.09 116.533 282.687 119.107 282.687 121.346C282.687 123.584 283.001 125.017 283.628 125.644C284.299 126.27 285.105 126.584 286.045 126.584ZM283.963 144.246C284.724 144.246 285.463 143.732 286.18 142.702C286.896 141.672 287.456 140.195 287.859 138.269L288.261 136.322C283.874 137.934 281.68 139.836 281.68 142.03C281.68 142.612 281.881 143.127 282.284 143.575C282.687 144.023 283.247 144.246 283.963 144.246Z" />
<path d="M315.718 133.098C313.166 133.098 311.039 132.225 309.338 130.479C307.637 128.733 306.786 126.002 306.786 122.286C306.786 118.973 307.435 115.503 308.734 111.876C310.077 108.205 312.047 105.116 314.644 102.608C317.285 100.056 320.419 98.7804 324.046 98.7804C325.881 98.7804 327.247 99.0938 328.142 99.7206C329.038 100.347 329.486 101.176 329.486 102.205V102.676L330.224 99.1162H339.895L335.06 121.95C334.881 122.622 334.791 123.338 334.791 124.099C334.791 126.024 335.709 126.987 337.544 126.987C338.798 126.987 339.873 126.405 340.768 125.241C341.708 124.077 342.447 122.554 342.984 120.674H345.805C344.148 125.509 342.089 128.8 339.626 130.546C337.209 132.248 334.769 133.098 332.306 133.098C330.426 133.098 328.903 132.583 327.739 131.554C326.62 130.479 325.949 128.934 325.725 126.92C324.426 128.755 322.971 130.255 321.359 131.419C319.792 132.539 317.912 133.098 315.718 133.098ZM320.083 126.584C321.203 126.584 322.3 126.069 323.374 125.039C324.493 123.965 325.255 122.51 325.658 120.674L328.881 105.496C328.881 104.914 328.657 104.355 328.21 103.817C327.762 103.235 327.068 102.944 326.128 102.944C324.337 102.944 322.725 103.996 321.292 106.101C319.86 108.16 318.74 110.667 317.934 113.622C317.128 116.533 316.725 119.107 316.725 121.346C316.725 123.584 317.039 125.017 317.666 125.644C318.337 126.27 319.143 126.584 320.083 126.584Z" />
<path d="M349.523 133.098C347.374 133.098 345.628 132.427 344.285 131.083C342.987 129.696 342.337 127.636 342.337 124.905C342.337 123.786 342.516 122.331 342.875 120.54L350.061 86.8934L360 85.5503L352.277 121.816C352.098 122.487 352.008 123.136 352.008 123.763C352.008 125.554 352.926 126.45 354.762 126.45C355.568 126.45 356.284 126.315 356.911 126.047C356.732 128.285 355.926 130.031 354.493 131.285C353.105 132.494 351.449 133.098 349.523 133.098Z" />
<path d="M168.544 102.12C167.801 99.7633 166.487 97.981 163.689 97.8661C163.575 97.8661 163.46 97.6936 163.289 97.5786C163.917 96.3138 164.203 94.9914 164.66 93.6691C167.516 85.9077 167.972 77.9163 167.116 69.8099C166.031 60.2087 162.889 51.1249 159.063 42.3286C158.606 41.2938 157.977 40.2589 157.406 39.2815C154.836 34.9121 151.352 31.2326 148.154 27.3232C146.44 25.2534 144.441 23.7011 142.214 22.3788C141.357 21.8614 140.386 21.459 139.644 20.6541C133.932 14.7899 127.536 9.78804 120.111 6.28102C118.854 5.7061 117.598 5.01619 116.227 4.67124C110.687 3.11895 105.204 1.56666 99.4356 0.704279C93.3815 -0.215596 87.4416 -0.273088 81.5018 0.761771C76.4186 1.62415 71.3355 2.71651 66.1952 3.23393C63.111 3.5214 60.084 3.92384 57.1141 4.9587C56.0289 5.36115 54.7153 5.53362 54.4868 7.08591C54.4297 7.37337 54.1441 7.43086 53.9157 7.54585C49.575 9.21312 45.2914 11.1104 41.2935 13.525C40.6652 13.87 40.1512 13.985 39.58 13.525C39.1802 13.2376 38.4949 13.0651 38.3235 13.5825C38.038 14.6174 36.7243 15.3073 37.4668 16.6296C35.3536 17.3195 33.3546 17.9519 31.3556 18.5843C30.8987 18.7568 30.3847 18.8143 30.4418 19.4467C30.4989 20.0216 30.9558 20.1366 31.4698 20.1941C32.1552 20.3091 32.8977 20.1366 33.6973 20.5966C32.2694 21.2865 31.0129 21.9189 29.7564 22.5513C29.3566 22.7813 29.0139 23.0687 29.2424 23.5287C29.4709 24.0461 29.9278 23.9886 30.3276 23.8161C30.7845 23.6437 31.1272 23.3562 31.5841 23.1262C31.5841 23.1262 31.5841 23.1262 31.527 23.1262C31.6412 23.7586 31.07 23.8736 30.7274 24.1611C29.4137 25.2534 28.1572 26.3458 27.0149 27.5531C25.4729 29.2204 24.045 30.9452 22.9027 32.8999C22.2745 33.9348 22.4458 34.1647 23.7023 34.1647L23.7594 34.2222L23.6452 34.1647C23.8737 34.6247 23.531 34.9696 23.3596 35.3146C20.6182 41.4087 19.2474 47.7904 19.7043 54.517C19.8757 57.4491 19.9899 60.3812 19.7615 63.3133C19.2474 70.1548 18.2765 76.9389 18.505 83.7805C18.505 83.8955 18.3907 84.0679 18.3336 84.2404C16.6773 84.4704 15.021 84.7003 13.4218 84.9303C9.13825 85.5627 5.25449 87.5175 1.08517 88.4948C0 89.1272 0 89.7597 0 90.5071C0.0571141 92.2893 0.114228 94.0716 0.114228 95.8538C0.114228 96.7162 0.342684 97.5211 1.14228 97.8086C2.62725 98.326 2.96993 99.5333 3.2555 100.856C3.82664 103.558 4.28355 106.26 5.14026 108.847C6.73946 113.446 8.90979 117.586 13.5931 119.713C14.507 120.173 15.4779 120.575 16.4488 121.035C16.049 123.738 16.3917 126.44 16.049 129.084C15.2495 135.063 17.1913 140.525 19.2474 145.93C20.047 148.114 21.0751 150.184 21.8747 152.369C24.5019 159.555 27.3576 166.742 29.8706 173.986C32.3837 181.23 34.6682 188.589 36.6672 196.005C37.1812 198.017 37.9237 199.915 38.9518 201.697C40.4367 204.227 42.8355 205.549 45.2343 206.986C50.3746 210.033 55.8575 211.586 61.8545 211.471C68.6511 211.298 74.9336 209.228 81.1591 206.871C82.2442 206.469 83.3865 206.009 84.129 205.204C86.5278 202.559 89.6691 200.892 92.5248 198.88C99.7783 193.706 106.918 188.359 114.628 183.817C119.882 180.712 124.337 176.86 127.935 171.973C128.621 171.054 129.42 170.249 130.22 169.386C132.619 166.684 134.446 163.695 135.76 160.303C137.702 155.128 139.987 150.126 142.842 145.355C143.185 144.78 143.528 144.377 144.327 144.435C147.925 144.665 150.952 143.227 153.58 140.87C157.235 137.593 159.862 133.569 162.204 129.314C164.66 124.772 166.487 119.943 168.372 115.114C169.857 110.744 169.971 106.49 168.544 102.12ZM153.58 36.8094C156.264 40.6038 158.377 44.6858 159.919 49.1127C161.918 54.9194 163.917 60.7836 164.945 66.8778C165.859 72.282 165.916 77.6863 165.459 83.0906C165.402 83.7805 165.174 84.4129 165.002 85.0453C165.06 82.1707 165.174 79.2961 165.06 76.364C164.717 68.9475 162.661 61.9334 160.376 54.9769C160.034 53.9995 159.691 52.9647 159.348 51.9873C159.12 51.4124 159.006 50.8375 159.234 50.1475C159.577 49.2277 159.177 48.4228 158.72 47.6179C156.264 42.961 153.694 38.3617 150.838 33.9922C150.553 33.5898 150.153 33.1874 150.096 32.6699C151.524 33.8198 152.552 35.3146 153.58 36.8094ZM149.525 31.6926C149.753 31.98 150.039 32.21 150.039 32.6124C149.639 32.44 149.41 32.1525 149.525 31.6926ZM149.41 31.6351C149.296 31.6351 149.182 31.5776 149.125 31.4051C149.239 31.4626 149.296 31.5776 149.41 31.6351ZM37.581 31.7501V31.6926V31.7501C36.8386 33.5898 36.7243 35.717 35.5249 37.4418C36.039 35.487 36.4388 33.5323 37.581 31.7501ZM29.3566 30.4277C29.1853 30.7727 28.9568 31.0601 28.7855 31.4051C28.7855 30.9452 29.1282 30.7152 29.3566 30.4277ZM23.8166 43.306C24.3877 41.0638 24.9588 38.8216 25.5871 36.6369C26.1011 34.9696 26.9578 33.4748 27.9859 32.0375C28.1572 31.7501 28.3286 31.4051 28.7284 31.4051C25.016 37.0393 24.3877 43.5359 23.8166 50.32C23.1883 48.5378 23.1883 45.6632 23.8166 43.306ZM22.7314 53.5396C22.7314 53.3096 22.7885 53.0222 22.7885 52.7922C22.8456 52.7922 22.9598 52.7922 23.017 52.7922C23.0741 53.0222 23.1312 53.3096 23.1312 53.5396C23.1312 53.7121 23.017 53.8845 22.9598 54.1145C22.6743 53.942 22.6743 53.7121 22.7314 53.5396ZM23.4739 62.5659C24.045 59.0588 25.6442 55.8968 27.1292 52.6772C27.5861 51.6423 28.4999 50.6075 26.9007 49.5726C26.3867 49.2277 26.558 48.1928 26.558 47.4454C26.558 46.0081 26.5009 44.6283 26.9578 43.076C27.5861 43.5359 27.7574 44.1109 27.8145 44.8008C27.9288 45.7206 28.1572 46.6405 28.3286 47.5604C28.4428 48.0203 28.7284 48.3653 29.2424 48.2503C29.8135 48.1353 29.9849 47.7329 29.9278 47.2154C29.8707 46.6405 29.6993 46.0656 29.6422 45.4907C29.5851 45.0882 29.4137 44.6283 29.9278 44.3983C30.556 44.1109 30.6702 45.1457 31.4698 44.7433C32.3837 43.5359 31.1843 41.5812 32.3266 40.2014C32.6692 40.5464 32.555 40.9488 32.6121 41.2938C32.7264 41.8112 32.7835 42.4436 33.4688 42.3861C34.1542 42.3286 34.8396 42.1561 34.8396 41.2363C34.8967 40.4889 34.9538 39.799 35.0109 38.9941C36.4959 39.7415 37.067 39.5115 37.4097 37.9017C37.8095 36.1195 38.2664 34.3947 39.5229 32.8999C39.1802 34.5672 38.7804 36.1769 38.4378 37.8442C38.552 37.9017 38.7233 38.0167 38.8376 38.0742C40.7223 37.3843 41.1792 35.2571 42.7213 34.0497C43.2925 34.6247 43.9207 34.6822 44.6632 34.1647C49.6892 30.5427 55.5149 29.4504 61.4547 28.5305C62.1401 28.4155 62.8255 28.358 63.4537 28.243C63.8535 28.1855 64.1962 28.0131 64.1391 27.5531C64.1391 26.9782 63.6822 26.8632 63.2824 26.9207C61.7403 27.0932 60.1982 27.3232 58.599 27.4956C58.0279 27.5531 57.2854 27.9556 57.1712 26.6907C59.7984 26.4033 62.4257 26.1733 65.0529 26.5758C65.6812 26.6907 66.7663 27.2657 66.9377 26.2308C67.109 25.081 65.8525 25.3109 65.2242 25.1959C62.6541 24.736 60.0269 25.1385 57.3996 25.081C57.7994 24.506 58.4848 24.621 59.0559 24.4485C59.7984 24.2761 60.5409 24.2761 61.112 23.7011C61.4547 23.2987 62.0259 23.5287 62.4257 23.5287C64.2533 23.7011 66.0238 24.1036 67.6802 24.9085C68.1942 25.1959 68.7082 25.4259 69.2222 25.6559C69.622 25.8284 70.1361 26.1733 70.4216 25.5984C70.7072 25.0235 70.2503 24.736 69.8505 24.506C68.9938 24.1036 68.1942 23.5862 67.2804 23.2987C63.3966 21.9189 59.3986 21.4015 55.2864 22.1489C53.1732 22.5513 51.4026 23.9311 49.4037 24.6785H49.3465C49.3465 24.6785 49.4037 24.6785 49.4037 24.621C50.6602 23.4137 52.4307 22.8963 53.6301 21.7464C55.0579 20.3666 56.7714 20.0216 58.4848 20.0216C63.3966 20.0216 68.0228 21.229 72.0208 24.2761C72.5348 24.6785 72.9918 25.081 73.5058 25.4259C73.8485 25.7134 74.3054 25.8284 74.6481 25.4259C74.9907 25.0235 74.7623 24.621 74.4196 24.3336C73.7914 23.8161 73.2202 23.2987 72.592 22.8388C67.5659 19.3892 62.0259 17.8944 55.9147 18.8718C54.7724 19.0443 53.6872 19.7342 52.4307 19.8492C52.4878 19.2742 53.1732 18.9293 52.7734 18.3544C52.3165 17.7795 51.7453 18.0094 51.1742 18.1244C48.3756 18.5843 46.1482 20.1366 44.0349 21.8614C43.578 22.2638 43.1211 22.6663 42.6642 23.0687C41.9788 22.4363 42.4357 22.0914 42.7784 21.8039C46.1482 18.4119 50.089 16.4571 55.0008 16.6296C57.7423 16.7446 60.4267 16.8021 63.111 17.2045C68.08 17.8944 72.3635 20.1366 76.1901 23.2987C76.5328 23.5862 76.9326 23.8736 77.3324 24.1611C77.4467 24.2186 77.618 24.2186 77.7322 24.2761C78.0749 24.2186 78.2463 24.0461 78.3605 23.7586C78.4176 23.5862 78.4747 23.3562 78.4747 23.1837C78.9316 22.9537 79.2172 23.5287 79.7883 23.4137C76.2473 19.7342 72.0208 17.147 67.7944 14.6749C68.3084 13.87 68.7653 14.3299 69.2222 14.5599C71.2212 15.5373 73.1631 16.5721 74.9336 17.8944C77.5038 19.7917 80.0168 21.8039 81.9587 24.3336C82.13 24.5635 82.3585 24.851 82.5869 25.081C82.8725 25.3684 83.2152 25.5409 83.5579 25.1959C83.9005 24.9085 83.7863 24.506 83.5579 24.2186C82.8154 23.1837 82.0158 22.2638 81.102 21.344C79.8454 20.1941 78.7032 18.9293 77.5609 17.5495C78.3605 16.8596 78.7032 17.5495 79.1601 17.7795C81.7302 19.5042 83.5579 21.9189 85.614 24.2186C86.0138 24.6785 86.3564 25.7709 87.0989 25.1959C87.8985 24.5635 86.8705 24.0461 86.5278 23.5287C86.128 22.9537 85.7282 22.3788 85.614 21.459C87.3274 22.5513 88.2412 24.2761 89.6691 25.5409C90.64 24.4485 89.2121 23.9886 89.3264 23.2412C90.5829 23.7586 91.4967 24.7935 92.3534 25.8858C92.9246 26.6332 93.4386 27.0932 94.0668 26.0583C96.0658 27.0357 96.9225 29.1054 98.5217 30.3127C99.0358 30.7152 99.4356 31.3476 100.292 31.0027C100.692 30.8302 100.921 31.2326 101.206 31.4626C102.234 32.1525 103.034 33.4173 104.633 32.9574C104.804 32.8999 105.09 33.3023 105.318 33.5323C106.803 34.8546 108.46 36.0045 110.23 36.8669C111.43 37.4418 112.172 38.5916 113.257 39.339C114.285 40.0864 115.199 40.8913 116.227 41.6962C116.741 42.0986 117.255 42.5011 117.941 42.2136C118.397 42.0411 118.626 42.2711 118.911 42.5586C119.768 43.5359 120.625 44.5133 121.424 45.6057C120.396 45.4332 120.225 44.0534 118.911 43.8234C119.083 45.3182 120.282 45.9506 120.853 46.928C121.424 47.9628 122.053 49.0552 122.395 50.205L122.453 50.2625H122.395C121.025 48.8827 119.997 47.2154 119.083 45.4907C118.911 45.2032 118.797 44.9158 118.626 44.6283C118.455 44.2833 118.169 43.9959 117.712 44.2259C117.255 44.4558 117.369 44.8008 117.484 45.1457C117.598 45.4332 117.769 45.7207 117.883 46.0081C119.368 48.8252 121.253 51.3549 123.481 53.5971C124.052 54.172 124.623 54.6894 124.452 55.8968C122.281 54.287 120.91 52.1023 119.197 50.205C118.512 51.2974 119.083 51.6998 119.368 52.1023C120.853 54.172 122.51 56.0692 124.452 57.679C125.137 58.2539 125.48 58.8289 124.851 59.7487C122.167 57.7365 120.168 55.0344 117.826 52.5047C117.312 53.4246 117.941 53.7696 118.226 54.172C120.168 56.7017 122.281 59.0013 124.737 61.0136C125.708 61.8185 125.594 62.4509 124.566 63.0833C123.366 62.1059 122.395 60.9561 121.367 59.8062C120.396 58.7714 119.597 57.4491 118.455 56.4717C117.826 57.5065 118.455 57.909 118.74 58.3114C120.454 60.5536 122.338 62.5659 124.28 64.5781C124.908 65.268 125.708 66.0154 124.737 67.2802C123.709 66.0729 122.795 64.9805 121.881 63.8882C120.968 62.8533 120.339 61.4735 118.854 61.0711C120.91 65.5554 125.308 68.3726 127.136 73.4319C122.967 69.6374 119.654 65.3255 115.142 62.4509C114.971 62.6233 114.856 62.7958 114.685 62.9683C117.598 65.038 120.168 67.5677 122.51 70.2123C124.851 72.857 127.878 75.0417 129.249 78.4912C124.966 74.9842 121.196 70.8447 116.684 67.6827C121.482 72.627 126.793 77.0539 131.02 82.5156C130.905 82.6306 130.791 82.7456 130.734 82.8606C129.249 81.4233 127.821 80.0435 126.336 78.6062C124.851 77.1689 123.423 75.6741 121.767 74.3518C120.968 75.3866 121.653 75.7316 122.053 76.134C124.28 78.3762 126.565 80.5609 128.792 82.8031C129.763 83.7805 130.905 84.7004 130.506 86.4251C130.448 86.7701 130.734 87.23 130.905 87.9199C117.484 84.5279 104.119 81.3658 90.5829 79.2961C92.2963 79.0086 93.8955 79.6985 95.5518 79.641C95.7803 78.8936 95.3805 78.7212 94.9807 78.6062C93.9526 78.2612 92.9246 78.2037 91.8965 78.0313C90.64 77.8588 89.2693 78.0888 88.2412 76.9389C88.1841 76.8814 88.0128 76.8239 87.9556 76.8239C85.5569 77.2264 83.3865 75.6166 80.9306 76.3065C80.2452 76.479 79.5028 76.4215 78.646 76.479C78.3605 75.3291 77.5609 75.2716 76.5328 75.4441C75.2192 75.6741 73.8485 75.8465 72.5348 76.249C72.4777 76.249 72.4777 76.1915 72.4206 76.1915C72.4777 76.1915 72.4777 76.1915 72.5348 76.249C72.4206 74.9842 71.7352 74.6392 70.6501 75.2141C68.8224 76.134 66.595 76.134 64.9958 77.8588C64.3675 76.8239 63.7964 77.1114 62.9968 77.7438C62.2543 78.3762 61.2834 78.7787 60.4267 79.2961C60.4267 78.9511 60.5409 78.5487 60.0269 78.4337C59.57 78.3187 59.1702 78.5487 58.9988 78.9511C58.3706 80.2735 57.3425 81.3658 57.1712 82.9181C57.0569 84.0104 56.3716 84.4704 55.3435 84.7004C49.5179 86.0802 43.6923 85.3903 37.9237 84.9878C37.8666 84.6429 37.9237 84.5854 38.0951 84.5854C38.2664 84.5854 38.3806 84.6429 38.552 84.7004C38.8376 84.1254 38.2093 83.8955 38.0951 83.5505C38.8376 83.5505 39.066 84.4129 39.8656 84.4704C39.0089 82.9181 37.7524 81.7108 36.553 80.5034C35.9819 80.7334 36.3817 81.3083 35.6392 81.5383C35.0109 81.4808 34.0971 81.3083 33.2975 80.8484C32.041 80.1585 30.7845 79.5835 29.3566 79.3536C28.6713 79.2386 27.9288 78.8936 27.4147 79.8135C27.3005 80.101 26.9578 80.0435 26.7294 80.0435C25.8727 79.986 25.0731 79.9285 24.2164 79.756C23.2454 79.5835 23.2454 81.0208 22.2745 80.8484C22.2174 80.7909 22.1031 80.6759 22.1031 80.5034C22.2745 74.5242 22.5029 68.545 23.4739 62.5659ZM43.4067 32.8999C43.9207 32.325 44.549 31.9225 45.2343 31.6351C44.9488 32.4974 44.2063 32.7849 43.4067 32.8999ZM45.2914 31.6351C45.4628 31.5201 45.6341 31.4626 45.8626 31.3476C45.8055 31.6351 45.577 31.6926 45.2914 31.6351ZM45.9197 31.2901L46.6051 30.9452C46.6051 30.9452 46.6051 30.9452 46.6051 31.0027C46.3766 31.1176 46.2053 31.2901 45.9197 31.2901ZM37.8095 83.378C37.9808 83.378 38.0951 83.4355 38.1522 83.608C37.9808 83.493 37.8666 83.4355 37.8095 83.378ZM14.3356 118.161C10.3376 116.321 8.45288 112.757 7.02503 108.905C5.99698 106.03 5.54006 102.983 4.85469 99.9933C4.51201 98.4985 4.0551 97.1187 2.4559 96.5437C1.99899 96.3713 1.82765 95.9688 1.82765 95.5089C1.82765 93.6691 1.82765 91.8294 1.82765 89.9896C8.16731 87.575 14.7354 86.1951 21.5891 86.1951C27.5861 86.1951 33.5259 86.1951 39.4658 87C48.3185 88.2074 56.8856 86.7126 65.2814 84.0679C69.4507 82.7456 73.7914 81.8832 78.132 81.0783C82.5869 80.216 87.0418 80.7909 91.3825 81.4808C106.289 83.723 120.968 87.2875 135.532 91.197C138.102 91.8869 140.615 92.7493 143.071 93.8991C137.474 92.5193 131.819 91.4269 126.222 90.2771C120.625 89.0698 115.199 87.2875 109.545 86.4251C109.373 87.23 109.659 87.345 110.059 87.4025C118.911 89.3572 127.593 91.8294 136.445 93.7266C140.443 94.589 144.327 95.7963 148.325 96.6012C149.924 96.9462 151.409 97.5211 152.723 98.4985C153.865 99.3034 155.122 99.3034 156.664 99.1309C156.036 100.108 155.407 100.568 154.494 100.281C151.01 99.2459 147.411 99.0159 143.87 98.2685C137.988 97.0037 132.162 95.4514 126.336 93.9566C118.911 92.0593 111.372 90.9095 104.005 88.7248C102.12 88.1499 101.72 88.4948 101.263 90.3921C100.407 93.8416 100.349 97.4061 99.664 100.856C99.0929 103.903 98.5789 106.95 97.4937 109.882C96.2943 113.101 93.8955 114.999 90.9256 116.494C85.0428 119.426 79.103 118.276 73.106 117.298C71.8495 117.068 70.593 116.609 69.3365 116.264C64.0249 114.826 60.2553 111.377 57.4567 106.835C55.6862 103.96 54.5439 100.798 53.1732 97.6936C51.9167 94.934 49.9177 93.9566 47.2333 94.589C45.6912 94.9914 44.6632 95.9113 44.092 97.4061C43.4638 99.1884 43.2353 101.086 42.8355 102.925C42.0931 106.375 41.1221 109.767 39.8656 113.044C38.3806 116.953 35.2394 119.483 31.1272 119.713C33.4688 118.793 35.2394 117.183 36.4959 115.114C40.4939 108.617 42.6071 101.661 42.0359 93.9566C42.0359 93.6691 41.9788 93.3242 42.0359 93.0367C42.3215 90.6795 41.1221 88.9548 38.8947 88.2649C36.9528 87.6899 34.9538 87.575 33.0119 87.575C28.043 87.5175 23.0741 87.345 18.1052 87.9774C14.5641 88.4373 11.7084 90.2196 9.13825 92.5193C8.39577 93.1517 7.99597 94.0141 7.65328 94.934C7.48194 95.3939 7.19637 95.8538 7.82463 96.1988C8.45288 96.4862 8.62422 95.9113 8.85268 95.5664C8.90979 95.4514 9.08113 95.3939 9.30959 95.1639C7.36771 96.9462 8.05308 99.9933 8.90979 102.12C9.48093 103.615 11.0801 107.122 13.0791 107.18C15.4779 107.237 16.6773 102.35 17.7625 100.683C19.5901 97.8661 21.4178 95.0489 23.2454 92.2318C23.8166 91.3119 24.4448 90.3921 25.3586 89.8746C26.2725 89.4147 27.3005 89.3572 28.3286 89.3572C29.9849 89.2997 31.6983 89.2997 33.3546 89.2422C35.068 89.1847 36.8386 89.2422 38.2664 90.1621C40.7223 91.8294 40.8365 95.3939 40.3796 98.3835C39.6943 103.098 38.3235 107.87 35.4678 111.722C32.6121 115.574 28.1572 118.391 23.4168 118.333C18.505 118.276 13.9358 115.114 11.2515 110.974C8.56711 106.835 7.48194 101.833 7.13926 96.8887C7.36771 100.281 6.79657 102.81 7.82463 106.26C8.56711 108.56 9.25248 110.917 10.6232 112.986C13.3647 117.183 17.8196 119.426 22.6172 120.116C23.6452 120.288 24.7875 120.288 25.7584 120.805C21.7033 121.093 17.9909 119.828 14.3356 118.161ZM143.927 100.108C142.271 100.568 140.786 99.9933 139.415 99.1309C140.9 99.4758 142.442 99.7633 143.927 100.108ZM132.733 100.626C132.447 100.683 132.276 100.626 132.105 100.396C132.333 100.338 132.562 100.396 132.733 100.626ZM46.8906 96.7162C46.6051 98.6135 45.8055 100.338 44.9488 102.063C45.3486 100.223 45.2343 98.1535 46.8906 96.7162ZM161.062 128.164C158.035 133.281 153.351 136.673 149.353 140.813C148.439 141.733 147.526 142.48 146.155 142.595C143.699 142.825 141.871 142.48 140.786 139.893C140.443 139.03 140.215 137.996 139.473 137.363C138.616 137.478 138.673 138.111 138.616 138.571C138.102 141.56 137.359 144.55 137.074 147.597C136.845 150.529 135.817 153.231 134.732 155.933C134.675 156.106 134.618 156.221 134.561 156.393C132.733 161.165 129.877 165.189 126.622 169.156C121.653 175.136 115.884 180.08 109.488 184.277C106.918 186.002 104.462 187.899 101.72 189.336C101.263 189.566 100.921 190.026 100.521 190.313C100.064 190.716 99.7211 191.291 98.9215 190.888C98.3504 190.601 97.9506 191.118 97.5508 191.463C96.3514 192.441 95.2091 193.361 94.0097 194.338C87.2703 199.972 79.5599 203.824 71.3355 206.641C70.0789 207.101 68.8795 207.849 67.5659 208.136C63.7964 208.998 59.9698 209.171 56.2573 207.676C53.4588 206.584 50.603 205.491 47.8045 204.227C43.6351 202.272 41.4648 198.535 39.9227 194.453C38.9518 191.923 38.3806 189.336 37.8095 186.691C36.553 180.827 34.4969 175.251 32.1552 169.789C27.9859 159.9 24.559 149.724 20.5039 139.778C18.1623 134.029 18.6763 128.107 19.1332 122.07C25.5871 123.105 31.6412 122.588 37.7524 119.483C36.1532 122.3 35.9247 125.29 33.4117 127.302C31.07 129.142 31.6412 133.109 34.04 134.891C35.068 135.696 36.2103 136.098 37.4668 136.213C40.4939 136.616 43.1782 138.168 46.0339 139.145C46.6622 139.375 47.2904 139.72 47.9758 139.778C48.8325 138.858 48.4898 138.226 47.576 137.651C46.6051 137.018 45.5199 136.558 44.3776 136.443C41.6933 136.213 39.9798 134.489 38.6662 132.419C36.7814 129.429 36.8386 126.095 38.1522 122.875C40.4939 117.126 43.3496 111.607 45.6341 105.8C46.8906 102.638 48.2614 99.4758 49.2894 96.2563C50.7173 96.4862 51.2313 97.5211 51.7453 98.6135C53.0018 101.488 54.087 104.478 55.7433 107.18C58.9417 112.527 63.2824 116.321 69.3936 118.103C73.9627 119.426 78.646 120.058 83.3294 120.173C88.3554 120.288 92.8675 118.276 96.5799 114.884C98.636 112.986 99.4927 110.284 100.178 107.64C101.435 102.868 102.006 98.0385 102.577 93.1517C102.691 92.1168 102.92 91.082 103.376 89.9896C105.947 90.6795 108.46 91.4269 110.973 92.0593C116.341 93.3817 121.767 94.589 127.193 95.9113C127.764 96.0263 128.45 96.0838 128.906 96.6012C128.964 96.6012 129.021 96.6012 129.021 96.6012C128.964 96.6012 128.964 96.6012 128.906 96.6012C128.45 96.7737 127.993 97.0037 128.107 97.5786C128.164 98.1535 128.621 98.326 129.135 98.3835C130.106 98.556 130.506 98.9584 129.934 99.9933C129.649 100.511 129.992 100.913 130.391 101.143C133.361 103.098 136.445 104.823 139.758 106.202C140.272 106.432 140.957 106.72 141.243 105.915C141.472 105.225 140.843 105.053 140.329 104.88C138.102 103.903 136.046 102.695 133.932 101.546C133.533 101.316 132.962 101.201 132.847 100.626C134.961 101.546 137.131 102.523 139.244 103.443C139.929 103.73 140.615 103.96 141.357 104.133C141.986 104.248 142.842 104.708 143.071 103.673C143.299 102.81 142.385 102.753 141.814 102.638C140.044 102.12 138.33 101.431 136.731 100.683C136.388 100.511 135.931 100.453 135.76 99.9933C137.188 100.281 138.502 100.913 139.872 101.431C141.015 101.833 142.157 102.178 143.356 102.235C144.898 102.293 145.184 102.005 145.07 100.396C147.868 100.741 150.667 101.143 153.694 102.063C148.839 106.95 145.412 112.354 145.527 119.483C146.383 119.368 146.44 118.621 146.669 117.988C147.183 116.436 147.526 114.826 148.04 113.274C149.867 107.87 153.408 103.845 158.149 100.741C160.034 99.5333 162.147 99.7058 163.86 100.568C165.459 101.373 166.373 103.27 166.545 105.168C167.173 113.446 165.231 121.035 161.062 128.164ZM36.4959 132.994C35.3536 132.591 33.8115 133.224 33.4117 131.556C33.1262 130.292 33.4688 129.142 34.7253 127.934C34.9538 130.004 35.6963 131.499 36.4959 132.994Z" />
<path d="M149.011 31.2914C148.953 31.2339 148.839 31.1764 148.782 31.1189C148.896 31.1764 148.953 31.1764 149.011 31.2914Z" />
<path d="M29.4137 30.4285C29.526 30.4285 29.4137 30.5416 29.4137 30.4285V30.4285Z" />
<path d="M37.6953 83.3221L37.7535 83.2639L37.6953 83.3221C37.7535 83.3221 37.7535 83.3803 37.6953 83.3221Z" />
<path d="M135.588 99.9361C135.531 99.9361 135.474 99.9361 135.417 99.9361C135.474 99.8218 135.531 99.879 135.588 99.9361Z" />
<path d="M30.3857 120.059C30.328 120.059 30.328 120.059 30.2704 120.001C30.2704 120.059 30.328 120.059 30.328 120.117C30.3857 120.117 30.3857 120.117 30.3857 120.059Z" />
<path d="M48.6612 151.45C51.1171 151.565 53.573 151.622 56.0289 151.852C58.4277 152.082 60.7123 151.392 63.054 151.22C68.4798 150.875 73.9056 150.588 79.3315 150.3C81.4447 150.185 83.4437 149.898 85.3284 148.748C85.9567 148.345 86.9847 147.54 87.6701 148.575C88.2984 149.495 87.3845 150.128 86.8705 150.703C79.9026 158.234 71.6782 163.811 61.4548 165.593C55.5149 166.628 49.6893 166.283 44.2063 163.293C42.0931 162.143 40.4368 160.476 39.0089 158.579C38.1522 157.429 37.2955 156.337 36.4388 155.187C36.1532 154.842 35.9248 154.382 35.3536 154.44C34.7825 154.497 34.2114 154.382 34.2114 153.692C34.1542 152.83 34.8967 152.715 35.525 152.657C39.8085 151.91 44.2063 150.933 48.6612 151.45ZM45.6342 158.636C48.2043 159.211 50.7744 159.499 53.4017 159.614C60.9978 160.074 68.4798 159.786 75.2764 155.647C76.6471 154.842 77.2182 153.635 77.8465 152.197C77.2182 152.197 76.7042 152.14 76.2473 152.197C70.5359 152.657 64.7674 152.542 59.056 153.52C58.1993 153.692 57.3997 153.635 56.543 153.577C53.8015 153.405 51.0029 153.232 48.2614 153.117C46.6622 153.06 45.063 153.117 43.3496 153.117C43.1783 154.267 43.2354 155.187 43.4067 156.164C43.5781 157.602 44.2063 158.349 45.6342 158.636ZM45.6342 160.649C46.1482 162.891 47.9758 163.178 49.6893 163.581C58.4848 165.478 66.595 163.351 74.1912 158.924C74.5339 158.751 74.9337 158.579 74.9337 157.832C65.567 163.063 55.572 161.626 45.6342 160.649Z" />
<path d="M160.833 107.813C159.405 108.561 158.092 109.308 156.892 110.63C158.491 112.355 158.663 114.54 158.32 116.782C158.263 117.184 158.149 117.587 158.035 117.989C157.863 118.449 157.463 118.737 156.949 118.737C156.321 118.737 156.15 118.334 156.036 117.817C155.693 116.265 154.893 114.942 154.665 113.39C154.151 113.332 154.037 113.677 153.808 113.85C153.408 114.195 153.123 114.712 152.494 114.367C151.98 114.08 152.152 113.562 152.209 113.102C152.323 111.895 152.723 110.745 153.351 109.71C154.893 107.123 157.178 105.399 159.862 104.249C162.318 103.156 164.888 104.766 165.288 107.468C165.516 108.848 164.488 109.768 163.175 109.193C162.375 108.848 161.69 108.273 160.833 107.813Z" />
<path d="M93.7812 155.417C93.5527 159.441 92.4105 163.408 91.2682 167.375C91.154 167.835 90.9255 168.352 90.2972 168.237C89.6119 168.065 89.669 167.49 89.7832 166.973C90.2972 164.673 90.8684 162.373 91.3824 160.074C92.9245 153.634 91.2682 147.943 87.3273 142.883C85.3854 140.411 83.2722 138.054 81.2161 135.639C80.9877 135.352 80.7592 135.064 80.5307 134.777C80.1881 134.317 79.9596 133.857 80.5307 133.397C81.0448 132.995 81.3875 133.397 81.7301 133.742C82.7011 134.834 83.6149 135.984 84.643 137.077C87.5558 140.181 90.3544 143.401 92.0678 147.368C93.1529 149.897 93.667 152.542 93.7812 155.417Z" />
<path d="M163.975 112.93C163.575 114.367 163.289 115.805 162.832 117.185C161.519 121.381 159.748 125.348 157.578 129.143C156.949 130.235 156.207 131.098 155.236 131.845C154.551 132.362 153.808 132.707 153.123 132.017C152.38 131.328 152.78 130.58 153.351 129.948C153.694 129.545 154.037 129.143 154.494 128.855C157.121 127.016 158.72 124.371 159.805 121.439C160.89 118.622 161.976 115.862 162.604 112.93C162.718 112.47 162.775 111.895 163.403 111.953C163.975 111.953 163.917 112.47 163.975 112.93Z" />
<path d="M32.8977 161.568C32.1552 161.568 32.041 161.051 31.8696 160.648C30.3275 157.199 29.071 153.634 28.3286 149.897C27.7574 147.195 27.9859 144.551 29.0139 142.021C29.5851 140.641 30.042 139.261 30.556 137.882C30.7845 137.307 30.9558 136.617 31.6983 136.847C32.555 137.077 32.2694 137.824 32.0981 138.456C31.8125 139.434 31.5269 140.469 31.07 141.446C29.2995 145.183 29.2995 148.92 30.4418 152.829C31.1843 155.302 31.8125 157.774 32.9548 160.131C33.1261 160.591 33.4117 161.051 32.8977 161.568Z" />
<path d="M153.351 117.587C153.865 118.622 154.379 119.542 154.779 120.519C155.236 121.726 155.407 122.991 154.779 124.199C153.808 126.153 152.152 127.591 150.381 128.798C149.582 129.315 148.725 129.085 148.097 128.453C147.411 127.821 147.583 127.016 148.04 126.268C148.554 125.348 149.41 124.831 150.324 124.428C153.522 123.164 153.408 122.416 152.723 119.139C152.437 118.162 152.38 118.219 153.351 117.587Z" />
<path d="M132.79 105.974C132.904 106.721 133.59 106.894 134.104 107.238C135.303 108.101 136.56 108.791 137.93 109.308C138.387 109.481 139.016 109.653 138.787 110.401C138.559 111.09 137.93 110.86 137.416 110.688C134.789 109.826 132.619 108.158 130.563 106.376C129.763 105.686 130.391 104.594 130.62 103.846C130.848 102.984 131.762 103.616 132.333 103.846C134.561 104.881 136.788 105.974 138.958 107.066C139.53 107.353 140.215 107.641 139.815 108.446C139.415 109.136 138.844 108.791 138.273 108.561C136.445 107.756 134.732 106.606 132.79 105.974C132.562 105.859 132.333 105.744 132.105 105.629H132.048C132.219 105.514 131.933 105.571 132.105 105.686C132.276 105.916 132.505 106.089 132.79 105.974Z" />
<path d="M67.9657 127.591C68.0228 129.948 67.4516 131.5 65.7382 132.593C64.8815 133.11 64.139 133.742 63.2823 134.317C62.8254 134.662 62.3114 134.777 61.9116 134.202C61.5689 133.685 61.9687 133.282 62.3114 132.995C62.8825 132.593 63.5108 132.19 64.139 131.73C66.5378 130.12 67.2232 127.418 65.8525 124.774C65.5098 124.141 65.11 123.509 64.7102 122.876C64.4817 122.474 64.3104 122.071 64.7102 121.727C65.2813 121.324 65.5669 121.784 65.8525 122.129C67.2232 123.911 68.0228 125.808 67.9657 127.591Z" />
<path d="M56.1431 135.122C55.6291 135.064 54.8295 135.122 54.2013 134.777C52.8305 133.972 51.7454 134.547 50.6031 135.179C50.3746 135.294 50.1462 135.409 49.9177 135.524C49.4608 135.697 49.061 135.697 48.8326 135.237C48.6041 134.777 48.7754 134.374 49.1752 134.202C50.9458 133.282 52.6592 132.305 54.7724 132.305C55.6862 132.305 56.5429 132.535 57.2283 133.167C57.6281 133.57 57.9137 134.029 57.6852 134.547C57.4568 135.237 56.8856 135.179 56.1431 135.122Z" />
<path d="M152.038 131.615C151.809 132.995 151.238 133.57 150.267 133.742C149.011 133.972 147.811 134.202 146.555 134.432C145.869 134.547 145.127 134.547 144.956 133.627C144.841 132.765 145.47 132.592 146.155 132.535C148.04 132.247 149.924 131.96 152.038 131.615Z" />
<path d="M130.563 110.803C130.334 110.573 130.106 110.401 129.877 110.171C129.535 109.826 129.42 109.423 129.706 109.021C129.991 108.618 130.448 108.618 130.791 108.848C132.562 109.883 134.275 110.975 136.217 111.608C136.617 111.78 136.902 112.125 136.674 112.643C136.445 113.103 136.046 113.103 135.589 113.045C134.332 112.873 133.247 112.125 132.105 111.723L132.162 111.78C131.99 111.55 131.762 111.493 131.476 111.435H131.534C131.419 111.32 131.305 111.205 131.191 111.09L131.248 111.148C130.962 110.975 130.734 110.86 130.563 110.803Z" />
<path d="M53.5158 113.907C53.0589 113.965 52.8876 113.677 52.8304 113.332C52.4878 111.32 52.9447 109.365 53.5158 107.411C53.63 107.008 53.9156 106.721 54.3154 106.836C54.7723 106.951 54.8865 107.296 54.7723 107.698C54.2012 109.595 53.8585 111.607 53.7443 113.562C53.8014 113.735 53.63 113.85 53.5158 113.907Z" />
<path d="M132.105 111.723C132.39 112.24 132.904 112.298 133.361 112.585C133.761 112.872 134.218 113.16 133.932 113.677C133.647 114.195 133.133 114.022 132.676 113.85C131.648 113.447 130.791 112.815 129.877 112.183C129.535 111.953 129.192 111.665 129.363 111.148C129.592 110.573 130.049 110.63 130.563 110.803L130.506 110.745C130.734 110.86 130.963 110.975 131.191 111.09L131.134 111.033C131.248 111.148 131.362 111.263 131.477 111.378H131.419C131.705 111.493 131.933 111.608 132.105 111.723Z" />
<path d="M47.5189 130.982C46.9478 130.925 46.6622 130.695 46.7193 130.465C47.062 129.143 47.4618 127.878 47.8616 126.556C47.9187 126.268 48.2043 126.211 48.4899 126.268C48.8326 126.383 49.0039 126.613 48.9468 126.958C48.6612 128.338 48.3756 129.775 47.5189 130.982Z" />
<path d="M125.537 82.9192C127.193 83.8966 129.306 86.0813 129.706 87.1161C128.735 87.1161 125.994 84.414 125.537 82.9192Z" />
<path d="M128.335 84.1838C127.136 83.2064 125.994 82.1141 125.194 80.6768V80.7342C126.45 81.7116 127.593 82.804 128.335 84.1838C128.335 84.1838 128.335 84.2413 128.335 84.1838Z" />
<path d="M129.306 85.1614C129.592 85.1614 129.706 85.3913 129.82 85.6788C129.363 85.7363 129.249 85.5063 129.306 85.1614Z" />
<path d="M128.963 84.8737C129.192 84.8737 129.249 84.9887 129.306 85.2187C129.078 85.1612 128.963 85.0462 128.963 84.8737C128.963 84.8737 128.963 84.8162 128.963 84.8737Z" />
<path d="M128.678 84.5291C128.906 84.5291 128.964 84.644 129.021 84.8165C128.792 84.8165 128.678 84.7015 128.678 84.5291Z" />
<path d="M128.678 84.5288C128.449 84.5288 128.392 84.4138 128.335 84.1838C128.564 84.1838 128.678 84.2988 128.678 84.5288Z" />
<path d="M125.25 80.7339C125.193 80.7339 125.137 80.6768 125.08 80.6768C125.137 80.6768 125.137 80.6768 125.193 80.6768C125.193 80.6768 125.193 80.6768 125.25 80.7339C125.25 80.7339 125.193 80.7339 125.25 80.7339Z" />
<path d="M99.2071 89.128C98.8644 88.0932 98.2933 87.3458 97.2652 87.0008C94.5238 86.0809 91.7823 84.8736 88.8124 84.6436C84.9286 84.2987 81.102 84.1262 77.6751 83.8962C76.0188 83.9537 74.8194 83.8962 73.62 84.0687C68.8795 84.7011 64.5389 86.4259 60.084 88.0932C57.7994 88.9556 56.4858 90.6803 56.0289 93.095C55.5149 95.5671 56.1431 97.9243 56.8856 100.224C59.113 106.721 63.5108 111.263 69.7934 113.85C75.2192 116.149 80.8735 116.149 86.5849 114.77C92.5248 113.332 96.0658 109.423 97.7793 103.789C98.8073 100.454 99.15 97.0044 99.6069 93.5549C99.8925 92.0026 99.664 90.5653 99.2071 89.128ZM97.4937 95.8546C97.4366 100.109 95.666 104.881 93.6099 107.353C90.64 110.918 86.128 113.102 81.5018 113.217C82.0729 113.332 82.5869 113.505 83.1581 113.62C76.8755 114.425 70.2503 113.16 65.1671 109.423C60.084 105.686 56.7714 99.3041 57.2854 92.98C57.114 95.3947 59.7984 99.2466 61.112 101.144C62.083 102.466 63.8535 105.168 65.5669 105.513C68.4226 106.031 68.8795 102.236 70.0789 100.167C72.592 95.7971 75.105 91.4277 77.5609 87.0583C77.7893 86.5984 78.0749 86.1959 78.4747 85.9085C78.9887 85.621 79.617 85.6785 80.1881 85.736C82.4156 85.966 84.643 86.1959 86.8134 86.4259C89.155 86.6559 91.6681 86.9433 93.7813 88.0932C96.5799 89.5305 97.5508 92.5201 97.4937 95.8546Z" />
</svg>
