<svg width="323" height="403" viewBox="0 0 323 403" xmlns="http://www.w3.org/2000/svg">
<path d="M321.077 194.541C319.663 190.05 317.16 186.655 311.829 186.436C311.612 186.436 311.394 186.107 311.067 185.888C312.264 183.479 312.808 180.96 313.679 178.441C319.119 163.655 319.989 148.431 318.357 132.989C316.29 114.698 310.306 97.3935 303.016 80.6365C302.146 78.6651 300.949 76.6936 299.861 74.8317C294.965 66.508 288.328 59.4985 282.235 52.0509C278.971 48.1081 275.163 45.1509 270.919 42.6319C269.287 41.6462 267.438 40.8795 266.023 39.3462C255.143 28.1748 242.957 18.6463 228.813 11.9654C226.419 10.8702 224.025 9.5559 221.414 8.89876C210.86 5.94163 200.415 2.98451 189.426 1.34166C177.893 -0.410712 166.577 -0.520235 155.262 1.45118C145.578 3.09403 135.895 5.17497 126.103 6.16068C120.227 6.7083 114.461 7.47496 108.803 9.44638C106.736 10.213 104.233 10.5416 103.798 13.4987C103.689 14.0464 103.145 14.1559 102.71 14.3749C94.4409 17.5511 86.2807 21.1654 78.6645 25.7653C77.4677 26.4225 76.4884 26.6415 75.4004 25.7653C74.6388 25.2177 73.3332 24.8892 73.0067 25.8749C72.4627 27.8463 69.9603 29.1606 71.3747 31.6796C67.349 32.9939 63.5409 34.1986 59.7328 35.4034C58.8624 35.7319 57.8831 35.8415 57.9919 37.0462C58.1007 38.1415 58.9712 38.3605 59.9504 38.47C61.256 38.6891 62.6705 38.3605 64.1937 39.2367C61.4736 40.551 59.08 41.7557 56.6863 42.9605C55.9247 43.3986 55.2719 43.9462 55.7071 44.8224C56.1423 45.8081 57.0127 45.6986 57.7743 45.37C58.6448 45.0414 59.2976 44.4938 60.168 44.0557C60.168 44.0557 60.168 44.0557 60.0592 44.0557C60.2768 45.2605 59.1888 45.4795 58.536 46.0271C56.0335 48.1081 53.6398 50.189 51.4638 52.489C48.5261 55.6652 45.806 58.9509 43.63 62.6747C42.4331 64.6461 42.7595 65.0842 45.1532 65.0842L45.262 65.1937L45.0444 65.0842C45.4796 65.9604 44.8268 66.6175 44.5004 67.2746C39.2778 78.8841 36.6666 91.0412 37.537 103.855C37.8634 109.441 38.081 115.027 37.6458 120.612C36.6666 133.646 34.8169 146.569 35.2521 159.603C35.2521 159.822 35.0345 160.15 34.9257 160.479C31.7704 160.917 28.6152 161.355 25.5687 161.793C17.4085 162.998 10.0099 166.722 2.06726 168.584C0 169.788 0 170.993 0 172.417C0.108803 175.812 0.217606 179.207 0.217606 182.603C0.217606 184.245 0.652817 185.779 2.17606 186.326C5.00493 187.312 5.65775 189.612 6.20177 192.131C7.28979 197.279 8.16022 202.426 9.79226 207.355C12.8387 216.117 16.9733 224.002 25.8951 228.055C27.6359 228.931 29.4856 229.698 31.3352 230.574C30.5736 235.721 31.2264 240.869 30.5736 245.907C29.0504 257.297 32.7497 267.702 36.6666 277.997C38.1898 282.159 40.1483 286.102 41.6715 290.264C46.6764 303.954 52.1166 317.645 56.9039 331.445C61.6912 345.245 66.0434 359.264 69.8515 373.392C70.8307 377.225 72.2451 380.84 74.2036 384.235C77.0325 389.054 81.6022 391.573 86.1719 394.311C95.9642 400.116 106.409 403.073 117.834 402.854C130.781 402.525 142.749 398.582 154.609 394.092C156.676 393.325 158.852 392.449 160.267 390.916C164.836 385.878 170.821 382.702 176.261 378.868C190.079 369.011 203.679 358.825 218.367 350.173C228.377 344.259 236.864 336.921 243.719 327.611C245.024 325.859 246.547 324.326 248.071 322.683C252.64 317.535 256.122 311.84 258.624 305.378C262.324 295.521 266.676 285.993 272.116 276.902C272.769 275.807 273.422 275.04 274.945 275.15C281.8 275.588 287.566 272.85 292.571 268.359C299.534 262.116 304.539 254.45 309 246.345C313.679 237.693 317.16 228.493 320.751 219.293C323.58 210.969 323.797 202.864 321.077 194.541ZM292.571 70.1222C297.685 77.3508 301.71 85.1269 304.648 93.5602C308.456 104.622 312.264 115.793 314.223 127.403C315.964 137.698 316.072 147.993 315.202 158.288C315.093 159.603 314.658 160.807 314.332 162.012C314.44 156.536 314.658 151.06 314.44 145.474C313.788 131.346 309.871 117.984 305.519 104.732C304.866 102.87 304.213 100.898 303.56 99.0364C303.125 97.9411 302.907 96.8459 303.342 95.5316C303.995 93.7793 303.234 92.2459 302.363 90.7126C297.685 81.8412 292.789 73.0794 287.348 64.7556C286.804 63.9889 286.043 63.2223 285.934 62.2366C288.654 64.427 290.613 67.2746 292.571 70.1222ZM284.846 60.3747C285.281 60.9223 285.825 61.3604 285.825 62.127C285.064 61.7985 284.628 61.2509 284.846 60.3747ZM284.628 60.2652C284.411 60.2652 284.193 60.1556 284.084 59.8271C284.302 59.9366 284.411 60.1556 284.628 60.2652ZM71.5923 60.4842V60.3747V60.4842C70.1779 63.9889 69.9603 68.0413 67.6754 71.327C68.6546 67.6032 69.4163 63.8794 71.5923 60.4842ZM55.9247 57.9652C55.5983 58.6223 55.1631 59.1699 54.8367 59.8271C54.8367 58.9509 55.4895 58.5128 55.9247 57.9652ZM45.3708 82.4984C46.4588 78.227 47.5469 73.9556 48.7437 69.7937C49.7229 66.6175 51.355 63.7699 53.3134 61.0318C53.6398 60.4842 53.9662 59.8271 54.7279 59.8271C47.6557 70.5603 46.4588 82.9365 45.3708 95.8602C44.174 92.465 44.174 86.9888 45.3708 82.4984ZM43.3036 101.994C43.3036 101.555 43.4124 101.008 43.4124 100.57C43.5212 100.57 43.7388 100.57 43.8476 100.57C43.9564 101.008 44.0652 101.555 44.0652 101.994C44.0652 102.322 43.8476 102.651 43.7388 103.089C43.1948 102.76 43.1948 102.322 43.3036 101.994ZM44.718 119.189C45.806 112.508 48.8525 106.484 51.6814 100.351C52.5518 98.3792 54.2926 96.4078 51.2462 94.4364C50.2669 93.7793 50.5933 91.8078 50.5933 90.384C50.5933 87.646 50.4845 85.0174 51.355 82.0603C52.5518 82.9365 52.8782 84.0317 52.987 85.346C53.2046 87.0983 53.6398 88.8507 53.9662 90.6031C54.1838 91.4793 54.7279 92.1364 55.7071 91.9174C56.7951 91.6983 57.1215 90.9317 57.0127 89.9459C56.9039 88.8507 56.5775 87.7555 56.4687 86.6603C56.3599 85.8936 56.0335 85.0174 57.0127 84.5793C58.2096 84.0317 58.4272 86.0031 59.9504 85.2364C61.6912 82.9365 59.4064 79.2127 61.5824 76.5841C62.2353 77.2412 62.0177 78.0079 62.1265 78.6651C62.3441 79.6508 62.4529 80.8555 63.7585 80.746C65.0641 80.6365 66.3698 80.3079 66.3698 78.5555C66.4786 77.1317 66.5874 75.8174 66.6962 74.2841C69.5251 75.7079 70.6131 75.2698 71.2659 72.2032C72.0275 68.808 72.8979 65.5223 75.2916 62.6747C74.6388 65.8508 73.8772 68.9175 73.2244 72.0937C73.442 72.2032 73.7684 72.4222 73.986 72.5318C77.5765 71.2175 78.4469 67.1651 81.3846 64.8651C82.4726 65.9604 83.6694 66.0699 85.0839 65.0842C94.6585 58.1842 105.756 56.1033 117.072 54.3509C118.378 54.1319 119.683 54.0223 120.88 53.8033C121.642 53.6938 122.294 53.3652 122.186 52.489C122.186 51.3938 121.315 51.1747 120.554 51.2842C117.616 51.6128 114.678 52.0509 111.632 52.3795C110.544 52.489 109.129 53.2557 108.912 50.8462C113.917 50.2985 118.922 49.8604 123.927 50.6271C125.123 50.8462 127.191 51.9414 127.517 49.97C127.843 47.7795 125.45 48.2176 124.253 47.9985C119.357 47.1224 114.352 47.889 109.347 47.7795C110.109 46.6843 111.414 46.9033 112.502 46.5747C113.917 46.2462 115.331 46.2462 116.419 45.1509C117.072 44.3843 118.16 44.8224 118.922 44.8224C122.403 45.1509 125.776 45.9176 128.931 47.4509C129.911 47.9985 130.89 48.4366 131.869 48.8747C132.631 49.2033 133.61 49.8604 134.154 48.7652C134.698 47.67 133.828 47.1224 133.066 46.6843C131.434 45.9176 129.911 44.9319 128.17 44.3843C120.771 41.7557 113.155 40.77 105.321 42.1938C101.296 42.9605 97.9226 45.589 94.1145 47.0128H94.0057C94.0057 47.0128 94.1145 47.0128 94.1145 46.9033C96.5082 44.6033 99.8811 43.6176 102.166 41.4272C104.886 38.7986 108.15 38.1415 111.414 38.1415C120.771 38.1415 129.584 40.4414 137.2 46.2462C138.18 47.0128 139.05 47.7795 140.029 48.4366C140.682 48.9843 141.553 49.2033 142.205 48.4366C142.858 47.67 142.423 46.9033 141.77 46.3557C140.573 45.37 139.485 44.3843 138.288 43.5081C128.714 36.9367 118.16 34.0891 106.518 35.951C104.342 36.2796 102.275 37.5938 99.8811 37.8129C99.9899 36.7177 101.296 36.0605 100.534 34.9653C99.6635 33.8701 98.5754 34.3081 97.4874 34.5272C92.1561 35.4034 87.9127 38.3605 83.887 41.6462C83.0166 42.4129 82.1462 43.1795 81.2758 43.9462C79.9701 42.7414 80.8406 42.0843 81.4934 41.5367C87.9127 35.0748 95.4201 31.351 104.777 31.6796C110 31.8986 115.113 32.0082 120.227 32.7748C129.693 34.0891 137.853 38.3605 145.143 44.3843C145.796 44.9319 146.558 45.4795 147.319 46.0271C147.537 46.1367 147.863 46.1367 148.081 46.2462C148.734 46.1367 149.06 45.8081 149.278 45.2605C149.386 44.9319 149.495 44.4938 149.495 44.1652C150.366 43.7271 150.91 44.8224 151.998 44.6033C145.252 37.5938 137.2 32.6653 129.149 27.9558C130.128 26.4225 130.999 27.2987 131.869 27.7368C135.677 29.5987 139.377 31.5701 142.749 34.0891C147.646 37.7034 152.433 41.5367 156.132 46.3557C156.459 46.7938 156.894 47.3414 157.329 47.7795C157.873 48.3271 158.526 48.6557 159.179 47.9985C159.831 47.4509 159.614 46.6843 159.179 46.1367C157.764 44.1652 156.241 42.4129 154.5 40.6605C152.106 38.47 149.93 36.0605 147.754 33.432C149.278 32.1177 149.93 33.432 150.801 33.8701C155.697 37.1558 159.179 41.7557 163.096 46.1367C163.857 47.0128 164.51 49.0938 165.924 47.9985C167.448 46.7938 165.489 45.8081 164.836 44.8224C164.075 43.7271 163.313 42.6319 163.096 40.8795C166.36 42.9605 168.1 46.2462 170.821 48.6557C172.67 46.5748 169.95 45.6986 170.168 44.2748C172.561 45.2605 174.302 47.2319 175.934 49.3128C177.022 50.7366 178.002 51.6128 179.198 49.6414C183.006 51.5033 184.639 55.4461 187.685 57.7461C188.664 58.5128 189.426 59.7175 191.058 59.0604C191.82 58.7318 192.255 59.4985 192.799 59.9366C194.757 61.2509 196.28 63.6604 199.327 62.7842C199.653 62.6747 200.197 63.4413 200.633 63.8794C203.461 66.3985 206.617 68.5889 209.99 70.2318C212.274 71.327 213.689 73.5175 215.756 74.9413C217.715 76.3651 219.455 77.8984 221.414 79.4317C222.393 80.1984 223.372 80.965 224.678 80.4174C225.548 80.0889 225.984 80.527 226.528 81.0746C228.16 82.9365 229.792 84.7984 231.315 86.8793C229.357 86.5507 229.03 83.9222 226.528 83.4841C226.854 86.3317 229.139 87.5364 230.227 89.3983C231.315 91.3698 232.512 93.4507 233.165 95.6412L233.273 95.7507H233.165C230.553 93.1221 228.595 89.9459 226.854 86.6603C226.528 86.1126 226.31 85.565 225.984 85.0174C225.657 84.3603 225.113 83.8126 224.243 84.2507C223.372 84.6888 223.59 85.346 223.808 86.0031C224.025 86.5507 224.352 87.0983 224.569 87.646C227.398 93.0126 230.989 97.8316 235.232 102.103C236.32 103.198 237.408 104.184 237.082 106.484C232.947 103.417 230.336 99.2554 227.072 95.6412C225.766 97.7221 226.854 98.4888 227.398 99.2554C230.227 103.198 233.382 106.813 237.082 109.879C238.387 110.974 239.04 112.07 237.843 113.822C232.729 109.989 228.921 104.841 224.46 100.022C223.481 101.774 224.678 102.432 225.222 103.198C228.921 108.017 232.947 112.398 237.626 116.232C239.475 117.765 239.258 118.97 237.299 120.174C235.014 118.312 233.165 116.122 231.206 113.932C229.357 111.96 227.833 109.441 225.657 107.579C224.46 109.551 225.657 110.317 226.201 111.084C229.465 115.355 233.056 119.189 236.755 123.022C237.952 124.336 239.475 125.76 237.626 128.17C235.667 125.87 233.926 123.789 232.185 121.708C230.445 119.736 229.248 117.108 226.419 116.341C230.336 124.884 238.714 130.25 242.195 139.889C234.253 132.66 227.942 124.446 219.347 118.97C219.02 119.298 218.803 119.627 218.476 119.955C224.025 123.898 228.921 128.717 233.382 133.755C237.843 138.793 243.61 142.955 246.221 149.527C238.061 142.846 230.88 134.96 222.284 128.936C231.424 138.355 241.542 146.789 249.594 157.193C249.376 157.412 249.159 157.631 249.05 157.85C246.221 155.112 243.501 152.484 240.672 149.746C237.843 147.008 235.123 144.16 231.968 141.641C230.445 143.612 231.75 144.269 232.512 145.036C236.755 149.308 241.107 153.469 245.351 157.741C247.2 159.603 249.376 161.355 248.615 164.641C248.506 165.298 249.05 166.174 249.376 167.488C223.808 161.027 198.348 155.003 172.561 151.06C175.825 150.512 178.872 151.827 182.027 151.717C182.462 150.293 181.701 149.965 180.939 149.746C178.981 149.088 177.022 148.979 175.064 148.65C172.67 148.322 170.059 148.76 168.1 146.569C167.992 146.46 167.665 146.35 167.556 146.35C162.987 147.117 158.852 144.05 154.174 145.365C152.868 145.693 151.454 145.584 149.822 145.693C149.278 143.503 147.754 143.393 145.796 143.722C143.293 144.16 140.682 144.489 138.18 145.255C138.071 145.255 138.071 145.146 137.962 145.146C138.071 145.146 138.071 145.146 138.18 145.255C137.962 142.846 136.656 142.189 134.589 143.284C131.107 145.036 126.864 145.036 123.818 148.322C122.621 146.35 121.533 146.898 120.01 148.103C118.595 149.308 116.746 150.074 115.113 151.06C115.113 150.403 115.331 149.636 114.352 149.417C113.481 149.198 112.72 149.636 112.393 150.403C111.197 152.922 109.238 155.003 108.912 157.96C108.694 160.041 107.388 160.917 105.43 161.355C94.3321 163.984 83.2342 162.669 72.2451 161.903C72.1363 161.246 72.2451 161.136 72.5715 161.136C72.8979 161.136 73.1156 161.246 73.442 161.355C73.986 160.26 72.7891 159.822 72.5715 159.165C73.986 159.165 74.4212 160.807 75.9444 160.917C74.3124 157.96 71.9187 155.66 69.6339 153.36C68.5458 153.798 69.3075 154.893 67.893 155.331C66.6962 155.222 64.9553 154.893 63.4321 154.017C61.0384 152.703 58.6448 151.608 55.9247 151.169C54.6191 150.95 53.2046 150.293 52.2254 152.046C52.0078 152.593 51.355 152.484 50.9198 152.484C49.2877 152.374 47.7645 152.265 46.1324 151.936C44.2828 151.608 44.2828 154.346 42.4331 154.017C42.3243 153.908 42.1067 153.688 42.1067 153.36C42.4331 141.969 42.8683 130.579 44.718 119.189ZM82.6902 62.6747C83.6694 61.5794 84.8663 60.8128 86.1719 60.2652C85.6279 61.908 84.2134 62.4556 82.6902 62.6747ZM86.2807 60.2652C86.6071 60.0461 86.9335 59.9366 87.3687 59.7175C87.2599 60.2652 86.8247 60.3747 86.2807 60.2652ZM87.4775 59.608L88.7832 58.9509C88.7832 58.9509 88.7832 58.9509 88.7832 59.0604C88.348 59.2794 88.0215 59.608 87.4775 59.608ZM72.0275 158.836C72.3539 158.836 72.5715 158.946 72.6803 159.274C72.3539 159.055 72.1363 158.946 72.0275 158.836ZM27.3095 225.098C19.6933 221.593 16.1028 214.802 13.3828 207.464C11.4243 201.988 10.5539 196.183 9.24825 190.488C8.59543 187.641 7.72501 185.012 4.67853 183.917C3.8081 183.588 3.48169 182.822 3.48169 181.945C3.48169 178.441 3.48169 174.936 3.48169 171.431C15.5588 166.831 28.0711 164.203 41.1275 164.203C52.5518 164.203 63.8673 164.203 75.1828 165.736C92.0473 168.036 108.368 165.188 124.362 160.15C132.304 157.631 140.573 155.988 148.842 154.455C157.329 152.812 165.816 153.908 174.085 155.222C202.482 159.493 230.445 166.284 258.189 173.731C263.085 175.045 267.873 176.688 272.551 178.879C261.889 176.25 251.117 174.169 240.454 171.979C229.792 169.679 219.455 166.284 208.684 164.641C208.358 166.174 208.902 166.393 209.663 166.503C226.528 170.226 243.066 174.936 259.93 178.55C267.546 180.193 274.945 182.493 282.561 184.026C285.608 184.684 288.436 185.779 290.939 187.641C293.115 189.174 295.509 189.174 298.446 188.845C297.25 190.707 296.053 191.584 294.312 191.036C287.675 189.064 280.82 188.626 274.075 187.203C262.868 184.793 251.77 181.836 240.672 178.988C226.528 175.374 212.166 173.184 198.13 169.022C194.54 167.926 193.778 168.584 192.908 172.198C191.276 178.769 191.167 185.56 189.861 192.131C188.773 197.936 187.794 203.741 185.727 209.326C183.442 215.46 178.872 219.074 173.214 221.921C162.008 227.507 150.692 225.317 139.268 223.455C136.874 223.017 134.48 222.14 132.087 221.483C121.968 218.745 114.787 212.174 109.456 203.522C106.083 198.045 103.907 192.022 101.296 186.107C98.9018 180.85 95.0937 178.988 89.98 180.193C87.0423 180.96 85.0839 182.712 83.9958 185.56C82.799 188.955 82.3638 192.569 81.6022 196.074C80.1877 202.645 78.3381 209.107 75.9444 215.35C73.1156 222.798 67.1314 227.617 59.2976 228.055C63.7585 226.302 67.1314 223.236 69.5251 219.293C77.1413 206.917 81.167 193.664 80.0789 178.988C80.0789 178.441 79.9701 177.784 80.0789 177.236C80.6229 172.746 78.3381 169.46 74.0948 168.146C70.3955 167.05 66.5874 166.831 62.8881 166.831C53.4222 166.722 43.9564 166.393 34.4905 167.598C27.7447 168.474 22.3046 171.869 17.4085 176.25C15.994 177.455 15.2324 179.098 14.5796 180.85C14.2532 181.726 13.7092 182.603 14.906 183.26C16.1028 183.807 16.4292 182.712 16.8644 182.055C16.9733 181.836 17.2997 181.726 17.7349 181.288C14.0356 184.684 15.3412 190.488 16.9733 194.541C18.0613 197.388 21.1078 204.069 24.9159 204.179C29.4856 204.288 31.7704 194.979 33.8377 191.803C37.3194 186.436 40.8011 181.069 44.2828 175.703C45.3708 173.95 46.5676 172.198 48.3085 171.212C50.0493 170.336 52.0078 170.226 53.9662 170.226C57.1215 170.117 60.3856 170.117 63.5409 170.007C66.805 169.898 70.1779 170.007 72.8979 171.76C77.5765 174.936 77.7941 181.726 76.9236 187.422C75.618 196.403 73.0067 205.493 67.5666 212.831C62.1265 220.169 53.6398 225.536 44.6092 225.426C35.2521 225.317 26.5479 219.293 21.4342 211.407C16.3204 203.522 14.2532 193.993 13.6004 184.574C14.0356 191.036 12.9475 195.855 14.906 202.426C16.3204 206.807 17.6261 211.298 20.2373 215.241C25.4599 223.236 33.9465 227.507 43.0859 228.821C45.0444 229.15 47.2205 229.15 49.0701 230.136C41.3451 230.683 34.2729 228.274 27.3095 225.098ZM274.183 190.707C271.028 191.584 268.199 190.488 265.588 188.845C268.417 189.503 271.354 190.05 274.183 190.707ZM252.858 191.693C252.314 191.803 251.988 191.693 251.661 191.255C252.096 191.145 252.532 191.255 252.858 191.693ZM89.3272 184.245C88.7832 187.86 87.2599 191.145 85.6279 194.431C86.3895 190.926 86.1719 186.984 89.3272 184.245ZM306.824 244.155C301.058 253.902 292.136 260.364 284.52 268.25C282.779 270.002 281.038 271.426 278.427 271.645C273.748 272.083 270.266 271.426 268.199 266.497C267.546 264.855 267.111 262.883 265.697 261.678C264.065 261.897 264.173 263.102 264.065 263.978C263.085 269.674 261.671 275.369 261.127 281.174C260.692 286.759 258.733 291.907 256.666 297.054C256.557 297.383 256.448 297.602 256.34 297.931C252.858 307.021 247.418 314.688 241.216 322.245C231.75 333.635 220.761 343.054 208.575 351.049C203.679 354.335 199.001 357.949 193.778 360.687C192.908 361.125 192.255 362.002 191.493 362.549C190.623 363.316 189.97 364.411 188.447 363.644C187.359 363.097 186.597 364.083 185.835 364.74C183.551 366.602 181.374 368.354 179.09 370.216C166.251 380.949 151.562 388.287 135.895 393.654C133.501 394.53 131.216 395.954 128.714 396.501C121.533 398.144 114.243 398.473 107.171 395.625C101.84 393.544 96.3994 391.463 91.068 389.054C83.1254 385.33 78.9909 378.211 76.0532 370.435C74.2036 365.616 73.1155 360.687 72.0275 355.649C69.6339 344.478 65.717 333.854 61.256 323.449C53.3134 304.611 46.7852 285.226 39.0602 266.278C34.5993 255.326 35.5785 244.045 36.449 232.545C48.7437 234.517 60.2768 233.531 71.9187 227.617C68.8722 232.983 68.437 238.678 63.6497 242.512C59.1888 246.017 60.2768 253.574 64.8465 256.969C66.805 258.502 68.981 259.269 71.3747 259.488C77.1413 260.255 82.255 263.212 87.6951 265.074C88.892 265.512 90.0888 266.169 91.3944 266.278C93.0265 264.526 92.3737 263.321 90.6328 262.226C88.7832 261.021 86.7159 260.145 84.5399 259.926C79.4261 259.488 76.162 256.202 73.6596 252.259C70.0691 246.564 70.1779 240.212 72.6803 234.079C77.1413 223.126 82.5814 212.612 86.9335 201.55C89.3272 195.526 91.9385 189.503 93.8969 183.369C96.617 183.807 97.5962 185.779 98.5754 187.86C100.969 193.336 103.036 199.031 106.192 204.179C112.285 214.364 120.554 221.593 132.196 224.988C140.9 227.507 149.822 228.712 158.743 228.931C168.318 229.15 176.914 225.317 183.986 218.855C187.903 215.241 189.535 210.093 190.84 205.055C193.234 195.964 194.322 186.764 195.41 177.455C195.628 175.484 196.063 173.512 196.933 171.431C201.829 172.746 206.617 174.169 211.404 175.374C221.632 177.893 231.968 180.193 242.304 182.712C243.392 182.931 244.698 183.041 245.568 184.026C245.677 184.026 245.786 184.026 245.786 184.026C245.677 184.026 245.677 184.026 245.568 184.026C244.698 184.355 243.827 184.793 244.045 185.888C244.154 186.984 245.024 187.312 246.003 187.422C247.853 187.75 248.615 188.517 247.527 190.488C246.983 191.474 247.635 192.241 248.397 192.679C254.055 196.403 259.93 199.688 266.241 202.317C267.22 202.755 268.526 203.302 269.07 201.769C269.505 200.455 268.308 200.126 267.329 199.798C263.085 197.936 259.169 195.636 255.143 193.445C254.381 193.007 253.293 192.788 253.076 191.693C257.101 193.445 261.236 195.307 265.261 197.06C266.567 197.607 267.873 198.045 269.287 198.374C270.484 198.593 272.116 199.469 272.551 197.498C272.986 195.855 271.246 195.745 270.158 195.526C266.785 194.541 263.521 193.226 260.474 191.803C259.821 191.474 258.951 191.364 258.624 190.488C261.345 191.036 263.847 192.241 266.458 193.226C268.634 193.993 270.81 194.65 273.095 194.76C276.033 194.869 276.577 194.322 276.359 191.255C281.691 191.912 287.022 192.679 292.789 194.431C283.54 203.741 277.012 214.036 277.23 227.617C278.862 227.398 278.971 225.974 279.406 224.769C280.385 221.812 281.038 218.745 282.017 215.788C285.499 205.493 292.245 197.826 301.275 191.912C304.866 189.612 308.891 189.941 312.156 191.584C315.202 193.117 316.943 196.731 317.269 200.345C318.466 216.117 314.767 230.574 306.824 244.155ZM69.5251 253.355C67.349 252.588 64.4113 253.793 63.6497 250.617C63.1057 248.207 63.7585 246.017 66.1522 243.717C66.5874 247.659 68.0018 250.507 69.5251 253.355Z" />
<path d="M283.867 59.6103C283.758 59.5008 283.54 59.3913 283.432 59.2817C283.649 59.3913 283.758 59.3913 283.867 59.6103Z" />
<path d="M56.0334 57.9666C56.2474 57.9666 56.0334 58.182 56.0334 57.9666V57.9666Z" />
<path d="M71.8099 158.73L71.9207 158.619L71.8099 158.73C71.9207 158.73 71.9207 158.841 71.8099 158.73Z" />
<path d="M258.296 190.38C258.188 190.38 258.08 190.38 257.972 190.38C258.08 190.162 258.188 190.271 258.296 190.38Z" />
<path d="M57.8851 228.714C57.7752 228.714 57.7752 228.714 57.6654 228.604C57.6654 228.714 57.7752 228.714 57.7752 228.825C57.8851 228.825 57.8851 228.825 57.8851 228.714Z" />
<path d="M92.7002 288.514C97.3787 288.733 102.057 288.842 106.736 289.28C111.305 289.718 115.658 288.404 120.118 288.076C130.455 287.418 140.791 286.871 151.127 286.323C155.153 286.104 158.961 285.557 162.552 283.366C163.748 282.599 165.707 281.066 167.013 283.038C168.209 284.79 166.469 285.995 165.489 287.09C152.215 301.437 136.548 312.061 117.072 315.456C105.757 317.428 94.6586 316.771 84.2135 311.075C80.1878 308.885 77.0325 305.709 74.3125 302.095C72.6804 299.904 71.0484 297.823 69.4163 295.633C68.8723 294.976 68.4371 294.099 67.3491 294.209C66.2611 294.318 65.173 294.099 65.173 292.785C65.0642 291.142 66.4787 290.923 67.6755 290.814C75.8357 289.39 84.2135 287.528 92.7002 288.514ZM86.9336 302.204C91.8297 303.299 96.7259 303.847 101.731 304.066C116.202 304.942 130.455 304.395 143.402 296.509C146.014 294.976 147.102 292.676 148.298 289.938C147.102 289.938 146.122 289.828 145.252 289.938C134.372 290.814 123.383 290.595 112.502 292.457C110.87 292.785 109.347 292.676 107.715 292.566C102.492 292.237 97.1611 291.909 91.9385 291.69C88.8921 291.58 85.8456 291.69 82.5815 291.69C82.2551 293.88 82.3639 295.633 82.6903 297.495C83.0167 300.233 84.2135 301.657 86.9336 302.204ZM86.9336 306.037C87.9128 310.309 91.3945 310.856 94.6586 311.623C111.414 315.237 126.864 311.185 141.335 302.752C141.988 302.423 142.749 302.095 142.749 300.671C124.906 310.637 105.865 307.899 86.9336 306.037Z" />
<path d="M306.389 205.385C303.669 206.809 301.166 208.233 298.881 210.752C301.928 214.038 302.254 218.2 301.602 222.471C301.493 223.238 301.275 224.004 301.058 224.771C300.731 225.647 299.969 226.195 298.99 226.195C297.793 226.195 297.467 225.428 297.249 224.442C296.597 221.485 295.073 218.966 294.638 216.009C293.659 215.9 293.441 216.557 293.006 216.885C292.244 217.542 291.7 218.528 290.504 217.871C289.524 217.323 289.851 216.338 289.96 215.461C290.177 213.161 290.939 210.971 292.136 209C295.073 204.071 299.425 200.785 304.539 198.595C309.218 196.514 314.114 199.581 314.875 204.728C315.311 207.357 313.352 209.109 310.85 208.014C309.327 207.357 308.021 206.262 306.389 205.385Z" />
<path d="M178.654 296.07C178.219 303.737 176.043 311.294 173.867 318.851C173.649 319.727 173.214 320.713 172.017 320.494C170.712 320.166 170.82 319.07 171.038 318.085C172.017 313.704 173.105 309.323 174.085 304.942C177.022 292.675 173.867 281.832 166.36 272.194C162.66 267.485 158.635 262.994 154.718 258.395C154.282 257.847 153.847 257.299 153.412 256.752C152.759 255.875 152.324 254.999 153.412 254.123C154.391 253.356 155.044 254.123 155.697 254.78C157.547 256.861 159.287 259.052 161.246 261.133C166.795 267.047 172.126 273.18 175.39 280.737C177.457 285.556 178.437 290.594 178.654 296.07Z" />
<path d="M312.373 215.133C311.612 217.871 311.068 220.609 310.197 223.238C307.695 231.233 304.322 238.79 300.187 246.019C298.991 248.1 297.576 249.742 295.726 251.166C294.421 252.152 293.006 252.809 291.701 251.495C290.286 250.181 291.048 248.757 292.136 247.552C292.789 246.785 293.442 246.019 294.312 245.471C299.317 241.966 302.363 236.928 304.431 231.343C306.498 225.976 308.565 220.719 309.762 215.133C309.98 214.257 310.088 213.162 311.285 213.271C312.373 213.271 312.265 214.257 312.373 215.133Z" />
<path d="M62.6704 307.789C61.256 307.789 61.0384 306.804 60.712 306.037C57.7743 299.466 55.3806 292.675 53.9662 285.556C52.8781 280.409 53.3134 275.37 55.2718 270.551C56.3598 267.923 57.2303 265.294 58.2095 262.666C58.6447 261.571 58.9711 260.256 60.3856 260.694C62.0176 261.132 61.4736 262.556 61.1472 263.761C60.6032 265.623 60.0591 267.594 59.1887 269.456C55.8158 276.575 55.8158 283.694 57.9919 291.142C59.4063 295.851 60.6032 300.561 62.7792 305.051C63.1056 305.927 63.6496 306.804 62.6704 307.789Z" />
<path d="M292.136 224.004C293.115 225.976 294.094 227.728 294.856 229.59C295.726 231.89 296.053 234.3 294.856 236.6C293.006 240.323 289.851 243.061 286.478 245.361C284.955 246.347 283.323 245.909 282.126 244.704C280.82 243.5 281.147 241.966 282.017 240.542C282.996 238.79 284.628 237.804 286.369 237.038C292.462 234.628 292.244 233.204 290.939 226.962C290.395 225.1 290.286 225.209 292.136 224.004Z" />
<path d="M252.967 201.881C253.184 203.305 254.49 203.634 255.469 204.291C257.754 205.934 260.148 207.248 262.759 208.234C263.629 208.562 264.826 208.891 264.391 210.314C263.956 211.629 262.759 211.191 261.78 210.862C256.775 209.219 252.64 206.043 248.723 202.648C247.2 201.334 248.397 199.253 248.832 197.829C249.267 196.186 251.008 197.391 252.096 197.829C256.34 199.8 260.583 201.881 264.717 203.962C265.805 204.51 267.111 205.057 266.349 206.591C265.588 207.905 264.5 207.248 263.412 206.81C259.93 205.276 256.666 203.086 252.967 201.881C252.531 201.662 252.096 201.443 251.661 201.224H251.552C251.879 201.005 251.335 201.115 251.661 201.334C251.987 201.772 252.423 202.1 252.967 201.881Z" />
<path d="M129.475 243.062C129.584 247.552 128.496 250.509 125.232 252.59C123.6 253.576 122.185 254.781 120.553 255.876C119.683 256.533 118.704 256.752 117.942 255.657C117.289 254.671 118.051 253.904 118.704 253.357C119.792 252.59 120.989 251.824 122.185 250.947C126.755 247.881 128.061 242.733 125.45 237.695C124.797 236.49 124.035 235.286 123.274 234.081C122.838 233.314 122.512 232.547 123.274 231.89C124.362 231.124 124.906 232 125.45 232.657C128.061 236.052 129.584 239.666 129.475 243.062Z" />
<path d="M106.953 257.409C105.974 257.299 104.451 257.409 103.254 256.751C100.643 255.218 98.5755 256.313 96.3995 257.518C95.9643 257.737 95.5291 257.956 95.0938 258.175C94.2234 258.504 93.4618 258.504 93.0266 257.628C92.5914 256.751 92.9178 255.985 93.6794 255.656C97.0523 253.904 100.316 252.042 104.342 252.042C106.083 252.042 107.715 252.48 109.021 253.685C109.782 254.451 110.326 255.328 109.891 256.313C109.456 257.628 108.368 257.518 106.953 257.409Z" />
<path d="M289.633 250.728C289.198 253.356 288.11 254.451 286.26 254.78C283.867 255.218 281.582 255.656 279.188 256.094C277.883 256.313 276.468 256.313 276.142 254.561C275.924 252.918 277.121 252.589 278.427 252.48C282.017 251.932 285.608 251.385 289.633 250.728Z" />
<path d="M248.723 211.081C248.288 210.643 247.853 210.314 247.418 209.876C246.765 209.219 246.547 208.452 247.091 207.686C247.635 206.919 248.506 206.919 249.158 207.357C252.531 209.328 255.795 211.409 259.495 212.614C260.256 212.943 260.8 213.6 260.365 214.586C259.93 215.462 259.168 215.462 258.298 215.352C255.904 215.024 253.837 213.6 251.661 212.833L251.77 212.943C251.443 212.505 251.008 212.395 250.464 212.286H250.573C250.355 212.067 250.138 211.847 249.92 211.628L250.029 211.738C249.485 211.409 249.05 211.19 248.723 211.081Z" />
<path d="M101.948 216.995C101.078 217.104 100.751 216.557 100.643 215.899C99.9898 212.066 100.86 208.342 101.948 204.619C102.166 203.852 102.71 203.304 103.471 203.523C104.342 203.742 104.559 204.399 104.342 205.166C103.254 208.78 102.601 212.614 102.383 216.337C102.492 216.666 102.166 216.885 101.948 216.995Z" />
<path d="M251.661 212.833C252.205 213.819 253.184 213.928 254.055 214.476C254.816 215.023 255.687 215.571 255.143 216.557C254.599 217.542 253.619 217.214 252.749 216.885C250.791 216.119 249.159 214.914 247.418 213.709C246.765 213.271 246.112 212.723 246.439 211.738C246.874 210.642 247.744 210.752 248.723 211.081L248.615 210.971C249.05 211.19 249.485 211.409 249.92 211.628L249.811 211.519C250.029 211.738 250.247 211.957 250.464 212.176H250.355C250.899 212.395 251.335 212.614 251.661 212.833Z" />
<path d="M90.5241 249.523C89.4361 249.413 88.892 248.975 89.0008 248.537C89.6537 246.018 90.4153 243.609 91.1769 241.09C91.2857 240.542 91.8297 240.433 92.3737 240.542C93.0266 240.761 93.353 241.199 93.2442 241.856C92.7001 244.485 92.1561 247.223 90.5241 249.523Z" />
<path d="M239.149 157.962C242.304 159.824 246.33 163.986 247.092 165.958C245.242 165.958 240.019 160.81 239.149 157.962Z" />
<path d="M244.48 160.371C242.195 158.509 240.019 156.428 238.496 153.69V153.799C240.89 155.661 243.066 157.742 244.48 160.371C244.48 160.371 244.48 160.48 244.48 160.371Z" />
<path d="M246.33 162.233C246.874 162.233 247.091 162.671 247.309 163.219C246.438 163.328 246.221 162.89 246.33 162.233Z" />
<path d="M245.677 161.685C246.112 161.685 246.221 161.904 246.329 162.343C245.894 162.233 245.677 162.014 245.677 161.685C245.677 161.685 245.677 161.576 245.677 161.685Z" />
<path d="M245.133 161.028C245.568 161.028 245.677 161.247 245.786 161.576C245.351 161.576 245.133 161.357 245.133 161.028Z" />
<path d="M245.133 161.028C244.698 161.028 244.589 160.809 244.48 160.371C244.915 160.371 245.133 160.59 245.133 161.028Z" />
<path d="M238.603 153.799C238.495 153.799 238.387 153.69 238.278 153.69C238.387 153.69 238.387 153.69 238.495 153.69C238.495 153.69 238.495 153.69 238.603 153.799C238.603 153.799 238.495 153.799 238.603 153.799Z" />
<path d="M188.991 169.79C188.338 167.819 187.25 166.395 185.291 165.738C180.069 163.986 174.846 161.686 169.189 161.248C161.79 160.59 154.5 160.262 147.972 159.824C144.817 159.933 142.532 159.824 140.247 160.152C131.216 161.357 122.947 164.643 114.461 167.819C110.109 169.462 107.606 172.747 106.736 177.347C105.756 182.057 106.953 186.547 108.368 190.928C112.611 203.304 120.989 211.957 132.957 216.885C143.293 221.266 154.065 221.266 164.945 218.638C176.261 215.9 183.006 208.452 186.271 197.719C188.229 191.366 188.882 184.795 189.752 178.224C190.296 175.266 189.861 172.528 188.991 169.79ZM185.727 182.605C185.618 190.709 182.245 199.8 178.328 204.509C172.67 211.3 164.075 215.461 155.262 215.681C156.35 215.9 157.329 216.228 158.417 216.447C146.449 217.981 133.828 215.571 124.144 208.452C114.461 201.333 108.15 189.176 109.129 177.128C108.803 181.728 113.917 189.066 116.419 192.681C118.269 195.2 121.642 200.347 124.906 201.004C130.346 201.99 131.216 194.762 133.501 190.819C138.288 182.495 143.076 174.171 147.754 165.848C148.19 164.971 148.734 164.205 149.495 163.657C150.474 163.109 151.671 163.219 152.759 163.328C157.003 163.767 161.246 164.205 165.38 164.643C169.841 165.081 174.629 165.628 178.654 167.819C183.986 170.557 185.835 176.252 185.727 182.605Z" />
</svg>
